solid base
facet normal -1.01904625884633e-016 1.82495449188653e-017 -1.0
outer loop
vertex -0.163054550113051 0.0335125189823788 0.0850000000000002
vertex -0.0251692394107054 -0.209048293089298 0.0850000000000002
vertex -0.163054550113051 -0.0783285887883867 0.0850000000000002
endloop
endfacet
facet normal -1.01904625884633e-016 1.82495449188653e-017 -1.0
outer loop
vertex -0.0251692394107054 -0.209048293089298 0.0850000000000002
vertex -0.163054550113051 0.0335125189823788 0.0850000000000002
vertex -0.0251692394107054 0.160084109027552 0.0850000000000002
endloop
endfacet
facet normal -1.01904625884633e-016 1.82495449188653e-017 -1.0
outer loop
vertex -0.0251692394107054 -0.209048293089298 0.0850000000000002
vertex -0.0251692394107054 0.160084109027552 0.0850000000000002
vertex 0.134830760589296 0.180951706910702 0.0850000000000002
endloop
endfacet
facet normal -1.01904625884633e-016 1.82495449188653e-017 -1.0
outer loop
vertex -0.0251692394107054 -0.209048293089298 0.0850000000000002
vertex 0.134830760589296 0.180951706910702 0.0850000000000002
vertex 0.134830760589296 -0.209048293089298 0.0850000000000002
endloop
endfacet
facet normal 0.0 0.0 1.0
outer loop
vertex -0.0251692394107054 -0.209048293089298 0.255000000000001
vertex -0.163054550113051 0.0335125189823788 0.255000000000001
vertex -0.163054550113051 -0.0783285887883867 0.255000000000001
endloop
endfacet
facet normal 0.0 0.0 1.0
outer loop
vertex -0.163054550113051 0.0335125189823788 0.255000000000001
vertex -0.0251692394107054 -0.209048293089298 0.255000000000001
vertex -0.0251692394107054 0.160084109027552 0.255000000000001
endloop
endfacet
facet normal 0.0 0.0 1.0
outer loop
vertex -0.0251692394107054 0.160084109027552 0.255000000000001
vertex -0.0251692394107054 -0.209048293089298 0.255000000000001
vertex 0.134830760589296 0.180951706910702 0.255000000000001
endloop
endfacet
facet normal 0.0 0.0 1.0
outer loop
vertex 0.134830760589296 0.180951706910702 0.255000000000001
vertex -0.0251692394107054 -0.209048293089298 0.255000000000001
vertex 0.134830760589296 -0.209048293089298 0.255000000000001
endloop
endfacet
facet normal -0.129327195445131 0.991601974845904 0.0
outer loop
vertex -0.0251692394107054 0.160084109027552 0.255000000000001
vertex 0.134830760589296 0.180951706910702 0.0850000000000002
vertex -0.0251692394107054 0.160084109027552 0.0850000000000002
endloop
endfacet
facet normal -0.129327195445131 0.991601974845904 0.0
outer loop
vertex 0.134830760589296 0.180951706910702 0.0850000000000002
vertex -0.0251692394107054 0.160084109027552 0.255000000000001
vertex 0.134830760589296 0.180951706910702 0.255000000000001
endloop
endfacet
facet normal 1.0 -6.93889390390723e-017 0.0
outer loop
vertex 0.134830760589296 0.180951706910702 0.0850000000000002
vertex 0.134830760589296 -0.209048293089298 0.255000000000001
vertex 0.134830760589296 -0.209048293089298 0.0850000000000002
endloop
endfacet
facet normal 1.0 -6.93889390390723e-017 0.0
outer loop
vertex 0.134830760589296 -0.209048293089298 0.255000000000001
vertex 0.134830760589296 0.180951706910702 0.0850000000000002
vertex 0.134830760589296 0.180951706910702 0.255000000000001
endloop
endfacet
facet normal -6.93889390390723e-017 -1.0 0.0
outer loop
vertex 0.134830760589296 -0.209048293089298 0.255000000000001
vertex -0.0251692394107054 -0.209048293089298 0.0850000000000002
vertex 0.134830760589296 -0.209048293089298 0.0850000000000002
endloop
endfacet
facet normal -6.93889390390723e-017 -1.0 0.0
outer loop
vertex -0.0251692394107054 -0.209048293089298 0.0850000000000002
vertex 0.134830760589296 -0.209048293089298 0.255000000000001
vertex -0.0251692394107054 -0.209048293089298 0.255000000000001
endloop
endfacet
facet normal -1.0 6.93889390390723e-017 0.0
outer loop
vertex -0.163054550113051 0.0335125189823788 0.255000000000001
vertex -0.163054550113051 -0.0783285887883867 0.0850000000000002
vertex -0.163054550113051 -0.0783285887883867 0.255000000000001
endloop
endfacet
facet normal -1.0 6.93889390390723e-017 0.0
outer loop
vertex -0.163054550113051 -0.0783285887883867 0.0850000000000002
vertex -0.163054550113051 0.0335125189823788 0.255000000000001
vertex -0.163054550113051 0.0335125189823788 0.0850000000000002
endloop
endfacet
facet normal -0.687998443689008 -0.72571216159129 0.0
outer loop
vertex -0.0251692394107054 -0.209048293089298 0.255000000000001
vertex -0.163054550113051 -0.0783285887883867 0.0850000000000002
vertex -0.0251692394107054 -0.209048293089298 0.0850000000000002
endloop
endfacet
facet normal -0.687998443689008 -0.72571216159129 0.0
outer loop
vertex -0.163054550113051 -0.0783285887883867 0.0850000000000002
vertex -0.0251692394107054 -0.209048293089298 0.255000000000001
vertex -0.163054550113051 -0.0783285887883867 0.255000000000001
endloop
endfacet
facet normal -0.676237527057152 0.736683654630417 0.0
outer loop
vertex -0.163054550113051 0.0335125189823788 0.255000000000001
vertex -0.0251692394107054 0.160084109027552 0.0850000000000002
vertex -0.163054550113051 0.0335125189823788 0.0850000000000002
endloop
endfacet
facet normal -0.676237527057152 0.736683654630417 0.0
outer loop
vertex -0.0251692394107054 0.160084109027552 0.0850000000000002
vertex -0.163054550113051 0.0335125189823788 0.255000000000001
vertex -0.0251692394107054 0.160084109027552 0.255000000000001
endloop
endfacet
endsolid base
