solid caster
facet normal -0.258819045102519 4.94288085052338e-016 0.965925826289069
outer loop
vertex -0.137248279869069 -0.0224080349030044 0.104801847617286
vertex -0.126248470452212 0.00759196509699591 0.10625
vertex -0.137248279869069 0.00759196509699577 0.104801847617286
endloop
endfacet
facet normal 8.37644330190815e-016 1.91328856992828e-015 1.0
outer loop
vertex -0.126248470452212 0.00759196509699591 0.10625
vertex -0.137248279869069 -0.0224080349030044 0.104801847617286
vertex -0.126248470452212 -0.0224080349030038 0.10625
endloop
endfacet
facet normal 4.36644384886686e-016 1.91328856992828e-015 1.0
outer loop
vertex -0.126248470452212 -0.0224080349030038 0.10625
vertex -0.115248661035355 0.0075919650969958 0.104801847617286
vertex -0.126248470452212 0.00759196509699591 0.10625
endloop
endfacet
facet normal 0.258819045102524 1.10055647963867e-015 0.965925826289067
outer loop
vertex -0.115248661035355 0.0075919650969958 0.104801847617286
vertex -0.126248470452212 -0.0224080349030038 0.10625
vertex -0.115248661035355 -0.0224080349030043 0.104801847617286
endloop
endfacet
facet normal 0.499999999999998 2.46006742507465e-015 0.86602540378444
outer loop
vertex -0.104998470452212 -0.0224080349030042 0.100556079660839
vertex -0.115248661035355 0.0075919650969958 0.104801847617286
vertex -0.115248661035355 -0.0224080349030043 0.104801847617286
endloop
endfacet
facet normal 0.258819045102524 1.10055647963867e-015 0.965925826289067
outer loop
vertex -0.115248661035355 0.0075919650969958 0.104801847617286
vertex -0.104998470452212 -0.0224080349030042 0.100556079660839
vertex -0.104998470452212 0.00759196509699594 0.100556079660839
endloop
endfacet
facet normal 0.707106781186546 3.88431698696003e-015 0.707106781186549
outer loop
vertex -0.096196432251784 -0.022408034903004 0.0938020382004286
vertex -0.104998470452212 0.00759196509699594 0.100556079660839
vertex -0.104998470452212 -0.0224080349030042 0.100556079660839
endloop
endfacet
facet normal 0.499999999999999 2.46006742507467e-015 0.866025403784439
outer loop
vertex -0.104998470452212 0.00759196509699594 0.100556079660839
vertex -0.096196432251784 -0.022408034903004 0.0938020382004286
vertex -0.0961964322517841 0.00759196509699558 0.0938020382004282
endloop
endfacet
facet normal 0.866025403784439 1.51873294805464e-015 0.499999999999999
outer loop
vertex -0.0894423907913736 -0.022408034903004 0.085
vertex -0.0961964322517841 0.00759196509699558 0.0938020382004282
vertex -0.096196432251784 -0.022408034903004 0.0938020382004286
endloop
endfacet
facet normal 0.707106781186547 3.88431698696001e-015 0.707106781186547
outer loop
vertex -0.0961964322517841 0.00759196509699558 0.0938020382004282
vertex -0.0894423907913736 -0.022408034903004 0.085
vertex -0.0894423907913736 0.00759196509699591 0.0850000000000001
endloop
endfacet
facet normal 0.965925826289068 4.33923699444179e-016 0.258819045102524
outer loop
vertex -0.0851966228349269 -0.0224080349030039 0.0747498094168574
vertex -0.0894423907913736 0.00759196509699591 0.0850000000000001
vertex -0.0894423907913736 -0.022408034903004 0.085
endloop
endfacet
facet normal 0.866025403784441 1.51873294805462e-015 0.499999999999997
outer loop
vertex -0.0894423907913736 0.00759196509699591 0.0850000000000001
vertex -0.0851966228349269 -0.0224080349030039 0.0747498094168574
vertex -0.0851966228349269 0.0075919650969961 0.0747498094168572
endloop
endfacet
facet normal 1.0 -4.19926160752376e-017 2.41491078172029e-015
outer loop
vertex -0.0837484704522122 -0.0224080349030036 0.0637500000000003
vertex -0.0851966228349269 0.0075919650969961 0.0747498094168572
vertex -0.0851966228349269 -0.0224080349030039 0.0747498094168574
endloop
endfacet
facet normal 0.965925826289069 4.33923699444185e-016 0.25881904510252
outer loop
vertex -0.0851966228349269 0.0075919650969961 0.0747498094168572
vertex -0.0837484704522122 -0.0224080349030036 0.0637500000000003
vertex -0.0837484704522123 0.00759196509699617 0.0637500000000002
endloop
endfacet
facet normal 0.965925826289068 7.41869550662643e-016 -0.258819045102522
outer loop
vertex -0.0851966228349269 0.00759196509699629 0.052750190583143
vertex -0.0837484704522122 -0.0224080349030036 0.0637500000000003
vertex -0.085196622834927 -0.0224080349030036 0.052750190583143
endloop
endfacet
facet normal 1.0 -4.19926160752376e-017 2.41491078172029e-015
outer loop
vertex -0.0837484704522122 -0.0224080349030036 0.0637500000000003
vertex -0.0851966228349269 0.00759196509699629 0.052750190583143
vertex -0.0837484704522123 0.00759196509699617 0.0637500000000002
endloop
endfacet
facet normal 0.86602540378444 4.28324683967479e-015 -0.499999999999998
outer loop
vertex -0.0894423907913736 0.00759196509699637 0.0425000000000004
vertex -0.085196622834927 -0.0224080349030036 0.052750190583143
vertex -0.0894423907913737 -0.0224080349030044 0.0425
endloop
endfacet
facet normal 0.965925826289067 7.4186955066267e-016 -0.258819045102525
outer loop
vertex -0.085196622834927 -0.0224080349030036 0.052750190583143
vertex -0.0894423907913736 0.00759196509699637 0.0425000000000004
vertex -0.0851966228349269 0.00759196509699629 0.052750190583143
endloop
endfacet
facet normal 0.70710678118655 5.43804378174404e-015 -0.707106781186545
outer loop
vertex -0.0961964322517841 -0.0224080349030039 0.0336979617995717
vertex -0.0894423907913736 0.00759196509699637 0.0425000000000004
vertex -0.0894423907913737 -0.0224080349030044 0.0425
endloop
endfacet
facet normal 0.86602540378444 4.28324683967479e-015 -0.499999999999998
outer loop
vertex -0.0894423907913736 0.00759196509699637 0.0425000000000004
vertex -0.0961964322517841 -0.0224080349030039 0.0336979617995717
vertex -0.0961964322517841 0.00759196509699591 0.0336979617995719
endloop
endfacet
facet normal 0.70710678118655 5.43804378174403e-015 -0.707106781186545
outer loop
vertex -0.0961964322517841 0.00759196509699591 0.0336979617995719
vertex -0.104998470452212 -0.0224080349030038 0.0269439203391614
vertex -0.104998470452212 0.00759196509699616 0.0269439203391616
endloop
endfacet
facet normal 0.499999999999998 2.75051635292845e-015 -0.86602540378444
outer loop
vertex -0.104998470452212 -0.0224080349030038 0.0269439203391614
vertex -0.0961964322517841 0.00759196509699591 0.0336979617995719
vertex -0.0961964322517841 -0.0224080349030039 0.0336979617995717
endloop
endfacet
facet normal 0.258819045102523 1.77243833684256e-015 -0.965925826289068
outer loop
vertex -0.115248661035355 0.00759196509699594 0.0226981523827148
vertex -0.104998470452212 -0.0224080349030038 0.0269439203391614
vertex -0.115248661035355 -0.0224080349030038 0.0226981523827148
endloop
endfacet
facet normal 0.499999999999998 2.75051635292845e-015 -0.86602540378444
outer loop
vertex -0.104998470452212 -0.0224080349030038 0.0269439203391614
vertex -0.115248661035355 0.00759196509699594 0.0226981523827148
vertex -0.104998470452212 0.00759196509699616 0.0269439203391616
endloop
endfacet
facet normal -3.43077730982401e-015 3.78108513910839e-015 -1.0
outer loop
vertex -0.126248470452212 0.00759196509699582 0.0212500000000002
vertex -0.115248661035355 -0.0224080349030038 0.0226981523827148
vertex -0.126248470452212 -0.0224080349030044 0.02125
endloop
endfacet
facet normal 0.25881904510252 1.77243833684258e-015 -0.965925826289069
outer loop
vertex -0.115248661035355 -0.0224080349030038 0.0226981523827148
vertex -0.126248470452212 0.00759196509699582 0.0212500000000002
vertex -0.115248661035355 0.00759196509699594 0.0226981523827148
endloop
endfacet
facet normal -3.43077730982401e-015 3.78108513910839e-015 -1.0
outer loop
vertex -0.126248470452212 0.00759196509699582 0.0212500000000002
vertex -0.137248279869069 -0.0224080349030038 0.0226981523827148
vertex -0.137248279869069 0.00759196509699618 0.0226981523827149
endloop
endfacet
facet normal -0.258819045102527 3.36990744003832e-015 -0.965925826289067
outer loop
vertex -0.137248279869069 -0.0224080349030038 0.0226981523827148
vertex -0.126248470452212 0.00759196509699582 0.0212500000000002
vertex -0.126248470452212 -0.0224080349030044 0.02125
endloop
endfacet
facet normal -0.25881904510253 3.36990744003827e-015 -0.965925826289066
outer loop
vertex -0.137248279869069 0.00759196509699618 0.0226981523827149
vertex -0.147498470452212 -0.0224080349030038 0.0269439203391616
vertex -0.147498470452212 0.00759196509699594 0.0269439203391617
endloop
endfacet
facet normal -0.499999999999996 2.50206004114992e-015 -0.866025403784441
outer loop
vertex -0.147498470452212 -0.0224080349030038 0.0269439203391616
vertex -0.137248279869069 0.00759196509699618 0.0226981523827149
vertex -0.137248279869069 -0.0224080349030038 0.0226981523827148
endloop
endfacet
facet normal -0.499999999999995 2.50206004114991e-015 -0.866025403784442
outer loop
vertex -0.147498470452212 0.00759196509699594 0.0269439203391617
vertex -0.15630050865264 -0.022408034903004 0.0336979617995717
vertex -0.156300508652641 0.00759196509699593 0.0336979617995719
endloop
endfacet
facet normal -0.707106781186547 4.65418161500617e-015 -0.707106781186548
outer loop
vertex -0.15630050865264 -0.022408034903004 0.0336979617995717
vertex -0.147498470452212 0.00759196509699594 0.0269439203391617
vertex -0.147498470452212 -0.0224080349030038 0.0269439203391616
endloop
endfacet
facet normal -0.866025403784441 4.32523945575005e-015 -0.499999999999997
outer loop
vertex -0.163054550113051 0.00759196509699631 0.0425000000000004
vertex -0.15630050865264 -0.022408034903004 0.0336979617995717
vertex -0.163054550113051 -0.0224080349030044 0.0425
endloop
endfacet
facet normal -0.707106781186547 4.65418161500617e-015 -0.707106781186548
outer loop
vertex -0.15630050865264 -0.022408034903004 0.0336979617995717
vertex -0.163054550113051 0.00759196509699631 0.0425000000000004
vertex -0.156300508652641 0.00759196509699593 0.0336979617995719
endloop
endfacet
facet normal -0.965925826289067 1.41375140786656e-015 -0.258819045102525
outer loop
vertex -0.167300318069498 -0.0224080349030035 0.052750190583143
vertex -0.163054550113051 0.00759196509699631 0.0425000000000004
vertex -0.163054550113051 -0.0224080349030044 0.0425
endloop
endfacet
facet normal -0.866025403784441 4.32523945575005e-015 -0.499999999999997
outer loop
vertex -0.163054550113051 0.00759196509699631 0.0425000000000004
vertex -0.167300318069498 -0.0224080349030035 0.052750190583143
vertex -0.167300318069498 0.00759196509699625 0.052750190583143
endloop
endfacet
facet normal -1.0 6.36888010474523e-016 6.41599912486576e-016
outer loop
vertex -0.168748470452212 0.00759196509699614 0.0637500000000002
vertex -0.167300318069498 -0.0224080349030035 0.052750190583143
vertex -0.168748470452212 -0.0224080349030036 0.0637500000000003
endloop
endfacet
facet normal -0.965925826289067 1.41375140786656e-015 -0.258819045102525
outer loop
vertex -0.167300318069498 -0.0224080349030035 0.052750190583143
vertex -0.168748470452212 0.00759196509699614 0.0637500000000002
vertex -0.167300318069498 0.00759196509699625 0.052750190583143
endloop
endfacet
facet normal -0.965925826289068 9.8682647776822e-016 0.25881904510252
outer loop
vertex -0.167300318069498 0.00759196509699611 0.0747498094168572
vertex -0.168748470452212 -0.0224080349030036 0.0637500000000003
vertex -0.167300318069498 -0.0224080349030038 0.0747498094168574
endloop
endfacet
facet normal -1.0 6.36888010474529e-016 2.57531075984195e-015
outer loop
vertex -0.168748470452212 -0.0224080349030036 0.0637500000000003
vertex -0.167300318069498 0.00759196509699611 0.0747498094168572
vertex -0.168748470452212 0.00759196509699614 0.0637500000000002
endloop
endfacet
facet normal -0.499999999999998 2.28859757610074e-015 0.86602540378444
outer loop
vertex -0.147498470452212 -0.0224080349030041 0.100556079660839
vertex -0.15630050865264 0.0075919650969957 0.0938020382004282
vertex -0.15630050865264 -0.0224080349030041 0.0938020382004286
endloop
endfacet
facet normal -0.707106781186549 4.10127883668209e-015 0.707106781186546
outer loop
vertex -0.15630050865264 0.0075919650969957 0.0938020382004282
vertex -0.147498470452212 -0.0224080349030041 0.100556079660839
vertex -0.147498470452212 0.00759196509699594 0.100556079660839
endloop
endfacet
facet normal -0.258819045102519 4.94288085052338e-016 0.965925826289069
outer loop
vertex -0.137248279869069 -0.0224080349030044 0.104801847617286
vertex -0.147498470452212 0.00759196509699594 0.100556079660839
vertex -0.147498470452212 -0.0224080349030041 0.100556079660839
endloop
endfacet
facet normal -0.499999999999999 2.28859757610076e-015 0.866025403784439
outer loop
vertex -0.147498470452212 0.00759196509699594 0.100556079660839
vertex -0.137248279869069 -0.0224080349030044 0.104801847617286
vertex -0.137248279869069 0.00759196509699577 0.104801847617286
endloop
endfacet
facet normal 5.27355936696949e-016 1.0 2.69296601999694e-015
outer loop
vertex -0.137248279869069 0.00759196509699618 0.0226981523827149
vertex -0.115248661035355 0.00759196509699594 0.0226981523827148
vertex -0.126248470452212 0.00759196509699582 0.0212500000000002
endloop
endfacet
facet normal 5.27355936696949e-016 1.0 2.69296601999694e-015
outer loop
vertex -0.115248661035355 0.00759196509699594 0.0226981523827148
vertex -0.137248279869069 0.00759196509699618 0.0226981523827149
vertex -0.104998470452212 0.00759196509699616 0.0269439203391616
endloop
endfacet
facet normal 5.27355936696949e-016 1.0 2.69296601999694e-015
outer loop
vertex -0.104998470452212 0.00759196509699616 0.0269439203391616
vertex -0.137248279869069 0.00759196509699618 0.0226981523827149
vertex -0.147498470452212 0.00759196509699594 0.0269439203391617
endloop
endfacet
facet normal 5.27355936696949e-016 1.0 2.69296601999694e-015
outer loop
vertex -0.104998470452212 0.00759196509699616 0.0269439203391616
vertex -0.147498470452212 0.00759196509699594 0.0269439203391617
vertex -0.0961964322517841 0.00759196509699591 0.0336979617995719
endloop
endfacet
facet normal 5.27355936696949e-016 1.0 2.69296601999694e-015
outer loop
vertex -0.0961964322517841 0.00759196509699591 0.0336979617995719
vertex -0.147498470452212 0.00759196509699594 0.0269439203391617
vertex -0.156300508652641 0.00759196509699593 0.0336979617995719
endloop
endfacet
facet normal 5.27355936696949e-016 1.0 2.69296601999694e-015
outer loop
vertex -0.0961964322517841 0.00759196509699591 0.0336979617995719
vertex -0.156300508652641 0.00759196509699593 0.0336979617995719
vertex -0.163054550113051 0.00759196509699631 0.0425000000000004
endloop
endfacet
facet normal 5.27355936696949e-016 1.0 2.69296601999694e-015
outer loop
vertex -0.0961964322517841 0.00759196509699591 0.0336979617995719
vertex -0.163054550113051 0.00759196509699631 0.0425000000000004
vertex -0.0894423907913736 0.00759196509699637 0.0425000000000004
endloop
endfacet
facet normal 5.27355936696949e-016 1.0 2.69296601999694e-015
outer loop
vertex -0.0894423907913736 0.00759196509699637 0.0425000000000004
vertex -0.163054550113051 0.00759196509699631 0.0425000000000004
vertex -0.167300318069498 0.00759196509699625 0.052750190583143
endloop
endfacet
facet normal 5.27355936696949e-016 1.0 2.69296601999694e-015
outer loop
vertex -0.0894423907913736 0.00759196509699637 0.0425000000000004
vertex -0.167300318069498 0.00759196509699625 0.052750190583143
vertex -0.0851966228349269 0.00759196509699629 0.052750190583143
endloop
endfacet
facet normal 5.27355936696949e-016 1.0 2.69296601999694e-015
outer loop
vertex -0.0851966228349269 0.00759196509699629 0.052750190583143
vertex -0.167300318069498 0.00759196509699625 0.052750190583143
vertex -0.168748470452212 0.00759196509699614 0.0637500000000002
endloop
endfacet
facet normal 5.27355936696949e-016 1.0 2.69296601999694e-015
outer loop
vertex -0.0851966228349269 0.00759196509699629 0.052750190583143
vertex -0.168748470452212 0.00759196509699614 0.0637500000000002
vertex -0.0837484704522123 0.00759196509699617 0.0637500000000002
endloop
endfacet
facet normal 5.27355936696949e-016 1.0 2.69296601999694e-015
outer loop
vertex -0.0837484704522123 0.00759196509699617 0.0637500000000002
vertex -0.168748470452212 0.00759196509699614 0.0637500000000002
vertex -0.167300318069498 0.00759196509699611 0.0747498094168572
endloop
endfacet
facet normal 5.27355936696949e-016 1.0 2.69296601999694e-015
outer loop
vertex -0.0837484704522123 0.00759196509699617 0.0637500000000002
vertex -0.167300318069498 0.00759196509699611 0.0747498094168572
vertex -0.0851966228349269 0.0075919650969961 0.0747498094168572
endloop
endfacet
facet normal 5.27355936696949e-016 1.0 2.69296601999694e-015
outer loop
vertex -0.0851966228349269 0.0075919650969961 0.0747498094168572
vertex -0.167300318069498 0.00759196509699611 0.0747498094168572
vertex -0.163054550113051 0.00759196509699622 0.0850000000000003
endloop
endfacet
facet normal 5.27355936696949e-016 1.0 2.69296601999694e-015
outer loop
vertex -0.0851966228349269 0.0075919650969961 0.0747498094168572
vertex -0.163054550113051 0.00759196509699622 0.0850000000000003
vertex -0.0894423907913736 0.00759196509699591 0.0850000000000001
endloop
endfacet
facet normal 5.27355936696949e-016 1.0 2.69296601999694e-015
outer loop
vertex -0.0894423907913736 0.00759196509699591 0.0850000000000001
vertex -0.163054550113051 0.00759196509699622 0.0850000000000003
vertex -0.0961964322517841 0.00759196509699558 0.0938020382004282
endloop
endfacet
facet normal 5.27355936696949e-016 1.0 2.69296601999694e-015
outer loop
vertex -0.0961964322517841 0.00759196509699558 0.0938020382004282
vertex -0.163054550113051 0.00759196509699622 0.0850000000000003
vertex -0.15630050865264 0.0075919650969957 0.0938020382004282
endloop
endfacet
facet normal 5.27355936696949e-016 1.0 2.69296601999694e-015
outer loop
vertex -0.0961964322517841 0.00759196509699558 0.0938020382004282
vertex -0.15630050865264 0.0075919650969957 0.0938020382004282
vertex -0.147498470452212 0.00759196509699594 0.100556079660839
endloop
endfacet
facet normal 5.27355936696949e-016 1.0 2.69296601999694e-015
outer loop
vertex -0.0961964322517841 0.00759196509699558 0.0938020382004282
vertex -0.147498470452212 0.00759196509699594 0.100556079660839
vertex -0.104998470452212 0.00759196509699594 0.100556079660839
endloop
endfacet
facet normal 5.27355936696949e-016 1.0 2.69296601999694e-015
outer loop
vertex -0.104998470452212 0.00759196509699594 0.100556079660839
vertex -0.147498470452212 0.00759196509699594 0.100556079660839
vertex -0.115248661035355 0.0075919650969958 0.104801847617286
endloop
endfacet
facet normal 5.27355936696949e-016 1.0 2.69296601999694e-015
outer loop
vertex -0.115248661035355 0.0075919650969958 0.104801847617286
vertex -0.147498470452212 0.00759196509699594 0.100556079660839
vertex -0.137248279869069 0.00759196509699577 0.104801847617286
endloop
endfacet
facet normal 5.27355936696949e-016 1.0 2.69296601999694e-015
outer loop
vertex -0.115248661035355 0.0075919650969958 0.104801847617286
vertex -0.137248279869069 0.00759196509699577 0.104801847617286
vertex -0.126248470452212 0.00759196509699591 0.10625
endloop
endfacet
facet normal -5.27355936696949e-016 -1.0 -1.46052414848967e-015
outer loop
vertex -0.115248661035355 -0.0224080349030038 0.0226981523827148
vertex -0.137248279869069 -0.0224080349030038 0.0226981523827148
vertex -0.126248470452212 -0.0224080349030044 0.02125
endloop
endfacet
facet normal -5.27355936696949e-016 -1.0 -1.46052414848967e-015
outer loop
vertex -0.137248279869069 -0.0224080349030038 0.0226981523827148
vertex -0.115248661035355 -0.0224080349030038 0.0226981523827148
vertex -0.104998470452212 -0.0224080349030038 0.0269439203391614
endloop
endfacet
facet normal -5.27355936696949e-016 -1.0 -1.46052414848967e-015
outer loop
vertex -0.137248279869069 -0.0224080349030038 0.0226981523827148
vertex -0.104998470452212 -0.0224080349030038 0.0269439203391614
vertex -0.147498470452212 -0.0224080349030038 0.0269439203391616
endloop
endfacet
facet normal -5.27355936696949e-016 -1.0 -1.46052414848967e-015
outer loop
vertex -0.147498470452212 -0.0224080349030038 0.0269439203391616
vertex -0.104998470452212 -0.0224080349030038 0.0269439203391614
vertex -0.0961964322517841 -0.0224080349030039 0.0336979617995717
endloop
endfacet
facet normal -5.27355936696949e-016 -1.0 -1.46052414848967e-015
outer loop
vertex -0.147498470452212 -0.0224080349030038 0.0269439203391616
vertex -0.0961964322517841 -0.0224080349030039 0.0336979617995717
vertex -0.15630050865264 -0.022408034903004 0.0336979617995717
endloop
endfacet
facet normal -5.27355936696949e-016 -1.0 -1.46052414848967e-015
outer loop
vertex -0.15630050865264 -0.022408034903004 0.0336979617995717
vertex -0.0961964322517841 -0.0224080349030039 0.0336979617995717
vertex -0.0894423907913737 -0.0224080349030044 0.0425
endloop
endfacet
facet normal -5.27355936696949e-016 -1.0 -1.46052414848967e-015
outer loop
vertex -0.15630050865264 -0.022408034903004 0.0336979617995717
vertex -0.0894423907913737 -0.0224080349030044 0.0425
vertex -0.163054550113051 -0.0224080349030044 0.0425
endloop
endfacet
facet normal -5.27355936696949e-016 -1.0 -1.46052414848967e-015
outer loop
vertex -0.163054550113051 -0.0224080349030044 0.0425
vertex -0.0894423907913737 -0.0224080349030044 0.0425
vertex -0.085196622834927 -0.0224080349030036 0.052750190583143
endloop
endfacet
facet normal -5.27355936696949e-016 -1.0 -1.46052414848967e-015
outer loop
vertex -0.163054550113051 -0.0224080349030044 0.0425
vertex -0.085196622834927 -0.0224080349030036 0.052750190583143
vertex -0.167300318069498 -0.0224080349030035 0.052750190583143
endloop
endfacet
facet normal -5.27355936696949e-016 -1.0 -1.46052414848967e-015
outer loop
vertex -0.167300318069498 -0.0224080349030035 0.052750190583143
vertex -0.085196622834927 -0.0224080349030036 0.052750190583143
vertex -0.0837484704522122 -0.0224080349030036 0.0637500000000003
endloop
endfacet
facet normal -5.27355936696949e-016 -1.0 -1.46052414848967e-015
outer loop
vertex -0.167300318069498 -0.0224080349030035 0.052750190583143
vertex -0.0837484704522122 -0.0224080349030036 0.0637500000000003
vertex -0.168748470452212 -0.0224080349030036 0.0637500000000003
endloop
endfacet
facet normal -5.27355936696949e-016 -1.0 -1.46052414848967e-015
outer loop
vertex -0.168748470452212 -0.0224080349030036 0.0637500000000003
vertex -0.0837484704522122 -0.0224080349030036 0.0637500000000003
vertex -0.0851966228349269 -0.0224080349030039 0.0747498094168574
endloop
endfacet
facet normal -5.27355936696949e-016 -1.0 -1.46052414848967e-015
outer loop
vertex -0.168748470452212 -0.0224080349030036 0.0637500000000003
vertex -0.0851966228349269 -0.0224080349030039 0.0747498094168574
vertex -0.167300318069498 -0.0224080349030038 0.0747498094168574
endloop
endfacet
facet normal -5.27355936696949e-016 -1.0 -1.46052414848967e-015
outer loop
vertex -0.167300318069498 -0.0224080349030038 0.0747498094168574
vertex -0.0851966228349269 -0.0224080349030039 0.0747498094168574
vertex -0.0894423907913736 -0.022408034903004 0.085
endloop
endfacet
facet normal -5.27355936696949e-016 -1.0 -1.46052414848967e-015
outer loop
vertex -0.167300318069498 -0.0224080349030038 0.0747498094168574
vertex -0.0894423907913736 -0.022408034903004 0.085
vertex -0.163054550113051 -0.0224080349030038 0.0850000000000002
endloop
endfacet
facet normal -5.27355936696949e-016 -1.0 -1.46052414848967e-015
outer loop
vertex -0.163054550113051 -0.0224080349030038 0.0850000000000002
vertex -0.0894423907913736 -0.022408034903004 0.085
vertex -0.096196432251784 -0.022408034903004 0.0938020382004286
endloop
endfacet
facet normal -5.27355936696949e-016 -1.0 -1.46052414848967e-015
outer loop
vertex -0.163054550113051 -0.0224080349030038 0.0850000000000002
vertex -0.096196432251784 -0.022408034903004 0.0938020382004286
vertex -0.15630050865264 -0.0224080349030041 0.0938020382004286
endloop
endfacet
facet normal -5.27355936696949e-016 -1.0 -1.46052414848967e-015
outer loop
vertex -0.15630050865264 -0.0224080349030041 0.0938020382004286
vertex -0.096196432251784 -0.022408034903004 0.0938020382004286
vertex -0.104998470452212 -0.0224080349030042 0.100556079660839
endloop
endfacet
facet normal -5.27355936696949e-016 -1.0 -1.46052414848967e-015
outer loop
vertex -0.15630050865264 -0.0224080349030041 0.0938020382004286
vertex -0.104998470452212 -0.0224080349030042 0.100556079660839
vertex -0.147498470452212 -0.0224080349030041 0.100556079660839
endloop
endfacet
facet normal -5.27355936696949e-016 -1.0 -1.46052414848967e-015
outer loop
vertex -0.147498470452212 -0.0224080349030041 0.100556079660839
vertex -0.104998470452212 -0.0224080349030042 0.100556079660839
vertex -0.115248661035355 -0.0224080349030043 0.104801847617286
endloop
endfacet
facet normal -5.27355936696949e-016 -1.0 -1.46052414848967e-015
outer loop
vertex -0.147498470452212 -0.0224080349030041 0.100556079660839
vertex -0.115248661035355 -0.0224080349030043 0.104801847617286
vertex -0.137248279869069 -0.0224080349030044 0.104801847617286
endloop
endfacet
facet normal -5.27355936696949e-016 -1.0 -1.46052414848967e-015
outer loop
vertex -0.137248279869069 -0.0224080349030044 0.104801847617286
vertex -0.115248661035355 -0.0224080349030043 0.104801847617286
vertex -0.126248470452212 -0.0224080349030038 0.10625
endloop
endfacet
facet normal -0.923879532511288 9.15933995315754e-016 0.382683432365088
outer loop
vertex -0.163054550113051 0.00759196509699622 0.0850000000000003
vertex -0.167300318069498 -0.0224080349030038 0.0747498094168574
vertex -0.163054550113051 -0.0224080349030038 0.0850000000000002
endloop
endfacet
facet normal -0.965925826289068 9.8682647776822e-016 0.258819045102522
outer loop
vertex -0.167300318069498 -0.0224080349030038 0.0747498094168574
vertex -0.163054550113051 0.00759196509699622 0.0850000000000003
vertex -0.167300318069498 0.00759196509699611 0.0747498094168572
endloop
endfacet
facet normal -0.707106781186549 4.10127883668209e-015 0.707106781186546
outer loop
vertex -0.15630050865264 0.0075919650969957 0.0938020382004282
vertex -0.163054550113051 -0.0224080349030038 0.0850000000000002
vertex -0.15630050865264 -0.0224080349030041 0.0938020382004286
endloop
endfacet
facet normal -0.793353340291234 2.99760216648792e-015 0.608761429008722
outer loop
vertex -0.163054550113051 -0.0224080349030038 0.0850000000000002
vertex -0.15630050865264 0.0075919650969957 0.0938020382004282
vertex -0.163054550113051 0.00759196509699622 0.0850000000000003
endloop
endfacet
endsolid caster
