solid left_wheel
facet normal -0.258819045102517 5.94020548231047e-016 0.965925826289069
outer loop
vertex 0.0866625756703914 0.133010017680138 0.0963051720407423
vertex 0.0976623850872486 0.163010017680139 0.0977533244234568
vertex 0.0866625756703913 0.163010017680138 0.0963051720407423
endloop
endfacet
facet normal 1.28319982497317e-015 1.87741987703068e-015 1.0
outer loop
vertex 0.0976623850872486 0.163010017680139 0.0977533244234568
vertex 0.0866625756703914 0.133010017680138 0.0963051720407423
vertex 0.0976623850872486 0.133010017680139 0.0977533244234569
endloop
endfacet
facet normal 0.965925826289068 4.33923699444179e-016 0.258819045102523
outer loop
vertex 0.138714232704534 0.133010017680139 0.0662531338403141
vertex 0.134468464748087 0.163010017680139 0.0765033244234568
vertex 0.134468464748087 0.133010017680139 0.0765033244234567
endloop
endfacet
facet normal 0.86602540378444 1.51873294805462e-015 0.499999999999997
outer loop
vertex 0.134468464748087 0.163010017680139 0.0765033244234568
vertex 0.138714232704534 0.133010017680139 0.0662531338403141
vertex 0.138714232704534 0.163010017680139 0.0662531338403139
endloop
endfacet
facet normal 0.258819045102523 1.00344855496466e-015 0.965925826289068
outer loop
vertex 0.108662194504106 0.133010017680139 0.0963051720407423
vertex 0.118912385087248 0.163010017680139 0.0920594040842955
vertex 0.108662194504106 0.163010017680139 0.0963051720407422
endloop
endfacet
facet normal 0.499999999999998 2.39707850096179e-015 0.86602540378444
outer loop
vertex 0.118912385087248 0.163010017680139 0.0920594040842955
vertex 0.108662194504106 0.133010017680139 0.0963051720407423
vertex 0.118912385087249 0.133010017680139 0.0920594040842955
endloop
endfacet
facet normal 0.499999999999998 2.3970785009618e-015 0.86602540378444
outer loop
vertex 0.118912385087249 0.133010017680139 0.0920594040842955
vertex 0.127714423287677 0.163010017680139 0.085305362623885
vertex 0.118912385087248 0.163010017680139 0.0920594040842955
endloop
endfacet
facet normal 0.707106781186549 3.90531329499763e-015 0.707106781186546
outer loop
vertex 0.127714423287677 0.163010017680139 0.085305362623885
vertex 0.118912385087249 0.133010017680139 0.0920594040842955
vertex 0.127714423287677 0.133010017680139 0.0853053626238854
endloop
endfacet
facet normal -0.499999999999995 2.29209696077367e-015 0.866025403784441
outer loop
vertex 0.0764123850872486 0.133010017680139 0.0920594040842956
vertex 0.0866625756703913 0.163010017680138 0.0963051720407423
vertex 0.0764123850872486 0.163010017680139 0.0920594040842956
endloop
endfacet
facet normal -0.258819045102518 5.94020548231038e-016 0.965925826289069
outer loop
vertex 0.0866625756703913 0.163010017680138 0.0963051720407423
vertex 0.0764123850872486 0.133010017680139 0.0920594040842956
vertex 0.0866625756703914 0.133010017680138 0.0963051720407423
endloop
endfacet
facet normal -0.258819045102531 3.41539944078645e-015 -0.965925826289066
outer loop
vertex 0.0866625756703914 0.163010017680139 0.0142014768061716
vertex 0.0976623850872485 0.133010017680138 0.0127533244234567
vertex 0.0866625756703913 0.133010017680139 0.0142014768061716
endloop
endfacet
facet normal -3.21691067232865e-015 3.78108513910839e-015 -1.0
outer loop
vertex 0.0976623850872485 0.133010017680138 0.0127533244234567
vertex 0.0866625756703914 0.163010017680139 0.0142014768061716
vertex 0.0976623850872485 0.163010017680139 0.012753324423457
endloop
endfacet
facet normal -0.499999999999994 2.50555942582285e-015 -0.866025403784442
outer loop
vertex 0.0764123850872486 0.163010017680139 0.0184472447626184
vertex 0.0866625756703913 0.133010017680139 0.0142014768061716
vertex 0.0764123850872486 0.133010017680139 0.0184472447626184
endloop
endfacet
facet normal -0.258819045102528 3.41539944078649e-015 -0.965925826289066
outer loop
vertex 0.0866625756703913 0.133010017680139 0.0142014768061716
vertex 0.0764123850872486 0.163010017680139 0.0184472447626184
vertex 0.0866625756703914 0.163010017680139 0.0142014768061716
endloop
endfacet
facet normal -0.499999999999994 2.50555942582285e-015 -0.866025403784442
outer loop
vertex 0.0764123850872486 0.163010017680139 0.0184472447626184
vertex 0.0676103468868202 0.133010017680139 0.0252012862230285
vertex 0.0676103468868201 0.163010017680139 0.0252012862230287
endloop
endfacet
facet normal -0.707106781186544 4.8361496179989e-015 -0.707106781186551
outer loop
vertex 0.0676103468868202 0.133010017680139 0.0252012862230285
vertex 0.0764123850872486 0.163010017680139 0.0184472447626184
vertex 0.0764123850872486 0.133010017680139 0.0184472447626184
endloop
endfacet
facet normal -0.86602540378444 4.37423084117115e-015 -0.499999999999998
outer loop
vertex 0.0608563054264097 0.163010017680139 0.0340033244234572
vertex 0.0676103468868202 0.133010017680139 0.0252012862230285
vertex 0.0608563054264098 0.133010017680138 0.0340033244234568
endloop
endfacet
facet normal -0.707106781186544 4.8361496179989e-015 -0.707106781186551
outer loop
vertex 0.0676103468868202 0.133010017680139 0.0252012862230285
vertex 0.0608563054264097 0.163010017680139 0.0340033244234572
vertex 0.0676103468868201 0.163010017680139 0.0252012862230287
endloop
endfacet
facet normal -0.965925826289068 1.21778586618208e-015 -0.258819045102523
outer loop
vertex 0.0566105374699631 0.133010017680139 0.0442535150065997
vertex 0.0608563054264097 0.163010017680139 0.0340033244234572
vertex 0.0608563054264098 0.133010017680138 0.0340033244234568
endloop
endfacet
facet normal -0.86602540378444 4.37423084117115e-015 -0.499999999999998
outer loop
vertex 0.0608563054264097 0.163010017680139 0.0340033244234572
vertex 0.0566105374699631 0.133010017680139 0.0442535150065997
vertex 0.0566105374699629 0.163010017680139 0.0442535150065997
endloop
endfacet
facet normal -0.923879532511288 9.15933995315754e-016 0.382683432365088
outer loop
vertex 0.0608563054264097 0.163010017680139 0.076503324423457
vertex 0.056610537469963 0.133010017680139 0.0662531338403141
vertex 0.0608563054264099 0.133010017680139 0.0765033244234569
endloop
endfacet
facet normal -0.965925826289068 8.3985232150487e-016 0.25881904510252
outer loop
vertex 0.056610537469963 0.133010017680139 0.0662531338403141
vertex 0.0608563054264097 0.163010017680139 0.076503324423457
vertex 0.056610537469963 0.163010017680139 0.0662531338403139
endloop
endfacet
facet normal -0.707106781186546 4.05928622060686e-015 0.707106781186549
outer loop
vertex 0.0676103468868201 0.133010017680139 0.0853053626238854
vertex 0.0608563054264097 0.163010017680139 0.076503324423457
vertex 0.0608563054264099 0.133010017680139 0.0765033244234569
endloop
endfacet
facet normal -0.793353340291232 3.15025783237388e-015 0.608761429008725
outer loop
vertex 0.0608563054264097 0.163010017680139 0.076503324423457
vertex 0.0676103468868201 0.133010017680139 0.0853053626238854
vertex 0.0676103468868203 0.163010017680138 0.085305362623885
endloop
endfacet
facet normal -0.499999999999995 2.29209696077367e-015 0.866025403784441
outer loop
vertex 0.0764123850872486 0.133010017680139 0.0920594040842956
vertex 0.0676103468868203 0.163010017680138 0.085305362623885
vertex 0.0676103468868201 0.133010017680139 0.0853053626238854
endloop
endfacet
facet normal -0.707106781186547 4.05928622060685e-015 0.707106781186547
outer loop
vertex 0.0676103468868203 0.163010017680138 0.085305362623885
vertex 0.0764123850872486 0.133010017680139 0.0920594040842956
vertex 0.0764123850872486 0.163010017680139 0.0920594040842956
endloop
endfacet
facet normal 0.70710678118655 5.5290277832404e-015 -0.707106781186545
outer loop
vertex 0.127714423287677 0.163010017680139 0.0252012862230287
vertex 0.118912385087249 0.133010017680139 0.0184472447626182
vertex 0.118912385087249 0.163010017680139 0.0184472447626183
endloop
endfacet
facet normal 0.499999999999998 2.92198620190237e-015 -0.86602540378444
outer loop
vertex 0.118912385087249 0.133010017680139 0.0184472447626182
vertex 0.127714423287677 0.163010017680139 0.0252012862230287
vertex 0.127714423287677 0.133010017680139 0.0252012862230285
endloop
endfacet
facet normal 1.42577758330347e-016 1.87741987703067e-015 1.0
outer loop
vertex 0.0976623850872486 0.133010017680139 0.0977533244234569
vertex 0.108662194504106 0.163010017680139 0.0963051720407422
vertex 0.0976623850872486 0.163010017680139 0.0977533244234568
endloop
endfacet
facet normal 0.258819045102522 1.00344855496467e-015 0.965925826289068
outer loop
vertex 0.108662194504106 0.163010017680139 0.0963051720407422
vertex 0.0976623850872486 0.133010017680139 0.0977533244234569
vertex 0.108662194504106 0.133010017680139 0.0963051720407423
endloop
endfacet
facet normal 1.0 -4.19926160752386e-017 2.18322192443349e-015
outer loop
vertex 0.140162385087248 0.133010017680139 0.055253324423457
vertex 0.138714232704534 0.163010017680139 0.0662531338403139
vertex 0.138714232704534 0.133010017680139 0.0662531338403141
endloop
endfacet
facet normal 0.965925826289068 4.33923699444183e-016 0.258819045102521
outer loop
vertex 0.138714232704534 0.163010017680139 0.0662531338403139
vertex 0.140162385087248 0.133010017680139 0.055253324423457
vertex 0.140162385087249 0.163010017680139 0.0552533244234569
endloop
endfacet
facet normal 0.965925826289067 7.41869550662666e-016 -0.258819045102524
outer loop
vertex 0.138714232704534 0.133010017680139 0.0442535150065997
vertex 0.140162385087249 0.163010017680139 0.0552533244234569
vertex 0.140162385087248 0.133010017680139 0.055253324423457
endloop
endfacet
facet normal 1.0 -4.19926160752472e-017 5.34666593738814e-016
outer loop
vertex 0.140162385087249 0.163010017680139 0.0552533244234569
vertex 0.138714232704534 0.133010017680139 0.0442535150065997
vertex 0.138714232704534 0.163010017680139 0.0442535150065997
endloop
endfacet
facet normal 5.27355936696949e-016 1.0 2.69296601999694e-015
outer loop
vertex 0.0866625756703914 0.163010017680139 0.0142014768061716
vertex 0.108662194504106 0.163010017680139 0.0142014768061715
vertex 0.0976623850872485 0.163010017680139 0.012753324423457
endloop
endfacet
facet normal 5.27355936696949e-016 1.0 2.69296601999694e-015
outer loop
vertex 0.108662194504106 0.163010017680139 0.0142014768061715
vertex 0.0866625756703914 0.163010017680139 0.0142014768061716
vertex 0.118912385087249 0.163010017680139 0.0184472447626183
endloop
endfacet
facet normal 5.27355936696949e-016 1.0 2.69296601999694e-015
outer loop
vertex 0.118912385087249 0.163010017680139 0.0184472447626183
vertex 0.0866625756703914 0.163010017680139 0.0142014768061716
vertex 0.0764123850872486 0.163010017680139 0.0184472447626184
endloop
endfacet
facet normal 5.27355936696949e-016 1.0 2.69296601999694e-015
outer loop
vertex 0.118912385087249 0.163010017680139 0.0184472447626183
vertex 0.0764123850872486 0.163010017680139 0.0184472447626184
vertex 0.127714423287677 0.163010017680139 0.0252012862230287
endloop
endfacet
facet normal 5.27355936696949e-016 1.0 2.69296601999694e-015
outer loop
vertex 0.127714423287677 0.163010017680139 0.0252012862230287
vertex 0.0764123850872486 0.163010017680139 0.0184472447626184
vertex 0.0676103468868201 0.163010017680139 0.0252012862230287
endloop
endfacet
facet normal 5.27355936696949e-016 1.0 2.69296601999694e-015
outer loop
vertex 0.127714423287677 0.163010017680139 0.0252012862230287
vertex 0.0676103468868201 0.163010017680139 0.0252012862230287
vertex 0.0608563054264097 0.163010017680139 0.0340033244234572
endloop
endfacet
facet normal 5.27355936696949e-016 1.0 2.69296601999694e-015
outer loop
vertex 0.127714423287677 0.163010017680139 0.0252012862230287
vertex 0.0608563054264097 0.163010017680139 0.0340033244234572
vertex 0.134468464748087 0.163010017680139 0.0340033244234572
endloop
endfacet
facet normal 5.27355936696949e-016 1.0 2.69296601999694e-015
outer loop
vertex 0.134468464748087 0.163010017680139 0.0340033244234572
vertex 0.0608563054264097 0.163010017680139 0.0340033244234572
vertex 0.0566105374699629 0.163010017680139 0.0442535150065997
endloop
endfacet
facet normal 5.27355936696949e-016 1.0 2.69296601999694e-015
outer loop
vertex 0.134468464748087 0.163010017680139 0.0340033244234572
vertex 0.0566105374699629 0.163010017680139 0.0442535150065997
vertex 0.138714232704534 0.163010017680139 0.0442535150065997
endloop
endfacet
facet normal 5.27355936696949e-016 1.0 2.69296601999694e-015
outer loop
vertex 0.138714232704534 0.163010017680139 0.0442535150065997
vertex 0.0566105374699629 0.163010017680139 0.0442535150065997
vertex 0.0551623850872485 0.163010017680139 0.0552533244234569
endloop
endfacet
facet normal 5.27355936696949e-016 1.0 2.69296601999694e-015
outer loop
vertex 0.138714232704534 0.163010017680139 0.0442535150065997
vertex 0.0551623850872485 0.163010017680139 0.0552533244234569
vertex 0.140162385087249 0.163010017680139 0.0552533244234569
endloop
endfacet
facet normal 5.27355936696949e-016 1.0 2.69296601999694e-015
outer loop
vertex 0.140162385087249 0.163010017680139 0.0552533244234569
vertex 0.0551623850872485 0.163010017680139 0.0552533244234569
vertex 0.056610537469963 0.163010017680139 0.0662531338403139
endloop
endfacet
facet normal 5.27355936696949e-016 1.0 2.69296601999694e-015
outer loop
vertex 0.140162385087249 0.163010017680139 0.0552533244234569
vertex 0.056610537469963 0.163010017680139 0.0662531338403139
vertex 0.138714232704534 0.163010017680139 0.0662531338403139
endloop
endfacet
facet normal 5.27355936696949e-016 1.0 2.69296601999694e-015
outer loop
vertex 0.138714232704534 0.163010017680139 0.0662531338403139
vertex 0.056610537469963 0.163010017680139 0.0662531338403139
vertex 0.0608563054264097 0.163010017680139 0.076503324423457
endloop
endfacet
facet normal 5.27355936696949e-016 1.0 2.69296601999694e-015
outer loop
vertex 0.138714232704534 0.163010017680139 0.0662531338403139
vertex 0.0608563054264097 0.163010017680139 0.076503324423457
vertex 0.134468464748087 0.163010017680139 0.0765033244234568
endloop
endfacet
facet normal 5.27355936696949e-016 1.0 2.69296601999694e-015
outer loop
vertex 0.134468464748087 0.163010017680139 0.0765033244234568
vertex 0.0608563054264097 0.163010017680139 0.076503324423457
vertex 0.127714423287677 0.163010017680139 0.085305362623885
endloop
endfacet
facet normal 5.27355936696949e-016 1.0 2.69296601999694e-015
outer loop
vertex 0.127714423287677 0.163010017680139 0.085305362623885
vertex 0.0608563054264097 0.163010017680139 0.076503324423457
vertex 0.0676103468868203 0.163010017680138 0.085305362623885
endloop
endfacet
facet normal 5.27355936696949e-016 1.0 2.69296601999694e-015
outer loop
vertex 0.127714423287677 0.163010017680139 0.085305362623885
vertex 0.0676103468868203 0.163010017680138 0.085305362623885
vertex 0.0764123850872486 0.163010017680139 0.0920594040842956
endloop
endfacet
facet normal 5.27355936696949e-016 1.0 2.69296601999694e-015
outer loop
vertex 0.127714423287677 0.163010017680139 0.085305362623885
vertex 0.0764123850872486 0.163010017680139 0.0920594040842956
vertex 0.118912385087248 0.163010017680139 0.0920594040842955
endloop
endfacet
facet normal 5.27355936696949e-016 1.0 2.69296601999694e-015
outer loop
vertex 0.118912385087248 0.163010017680139 0.0920594040842955
vertex 0.0764123850872486 0.163010017680139 0.0920594040842956
vertex 0.108662194504106 0.163010017680139 0.0963051720407422
endloop
endfacet
facet normal 5.27355936696949e-016 1.0 2.69296601999694e-015
outer loop
vertex 0.108662194504106 0.163010017680139 0.0963051720407422
vertex 0.0764123850872486 0.163010017680139 0.0920594040842956
vertex 0.0866625756703913 0.163010017680138 0.0963051720407423
endloop
endfacet
facet normal 5.27355936696949e-016 1.0 2.69296601999694e-015
outer loop
vertex 0.108662194504106 0.163010017680139 0.0963051720407422
vertex 0.0866625756703913 0.163010017680138 0.0963051720407423
vertex 0.0976623850872486 0.163010017680139 0.0977533244234568
endloop
endfacet
facet normal -5.27355936696949e-016 -1.0 -1.46052414848967e-015
outer loop
vertex 0.108662194504106 0.133010017680139 0.0142014768061716
vertex 0.0866625756703913 0.133010017680139 0.0142014768061716
vertex 0.0976623850872485 0.133010017680138 0.0127533244234567
endloop
endfacet
facet normal -5.27355936696949e-016 -1.0 -1.46052414848967e-015
outer loop
vertex 0.0866625756703913 0.133010017680139 0.0142014768061716
vertex 0.108662194504106 0.133010017680139 0.0142014768061716
vertex 0.118912385087249 0.133010017680139 0.0184472447626182
endloop
endfacet
facet normal -5.27355936696949e-016 -1.0 -1.46052414848967e-015
outer loop
vertex 0.0866625756703913 0.133010017680139 0.0142014768061716
vertex 0.118912385087249 0.133010017680139 0.0184472447626182
vertex 0.0764123850872486 0.133010017680139 0.0184472447626184
endloop
endfacet
facet normal -5.27355936696949e-016 -1.0 -1.46052414848967e-015
outer loop
vertex 0.0764123850872486 0.133010017680139 0.0184472447626184
vertex 0.118912385087249 0.133010017680139 0.0184472447626182
vertex 0.127714423287677 0.133010017680139 0.0252012862230285
endloop
endfacet
facet normal -5.27355936696949e-016 -1.0 -1.46052414848967e-015
outer loop
vertex 0.0764123850872486 0.133010017680139 0.0184472447626184
vertex 0.127714423287677 0.133010017680139 0.0252012862230285
vertex 0.0676103468868202 0.133010017680139 0.0252012862230285
endloop
endfacet
facet normal -5.27355936696949e-016 -1.0 -1.46052414848967e-015
outer loop
vertex 0.0676103468868202 0.133010017680139 0.0252012862230285
vertex 0.127714423287677 0.133010017680139 0.0252012862230285
vertex 0.134468464748087 0.133010017680138 0.0340033244234567
endloop
endfacet
facet normal -5.27355936696949e-016 -1.0 -1.46052414848967e-015
outer loop
vertex 0.0676103468868202 0.133010017680139 0.0252012862230285
vertex 0.134468464748087 0.133010017680138 0.0340033244234567
vertex 0.0608563054264098 0.133010017680138 0.0340033244234568
endloop
endfacet
facet normal -5.27355936696949e-016 -1.0 -1.46052414848967e-015
outer loop
vertex 0.0608563054264098 0.133010017680138 0.0340033244234568
vertex 0.134468464748087 0.133010017680138 0.0340033244234567
vertex 0.138714232704534 0.133010017680139 0.0442535150065997
endloop
endfacet
facet normal -5.27355936696949e-016 -1.0 -1.46052414848967e-015
outer loop
vertex 0.0608563054264098 0.133010017680138 0.0340033244234568
vertex 0.138714232704534 0.133010017680139 0.0442535150065997
vertex 0.0566105374699631 0.133010017680139 0.0442535150065997
endloop
endfacet
facet normal -5.27355936696949e-016 -1.0 -1.46052414848967e-015
outer loop
vertex 0.0566105374699631 0.133010017680139 0.0442535150065997
vertex 0.138714232704534 0.133010017680139 0.0442535150065997
vertex 0.0551623850872485 0.133010017680139 0.055253324423457
endloop
endfacet
facet normal -5.27355936696949e-016 -1.0 -1.46052414848967e-015
outer loop
vertex 0.0551623850872485 0.133010017680139 0.055253324423457
vertex 0.138714232704534 0.133010017680139 0.0442535150065997
vertex 0.140162385087248 0.133010017680139 0.055253324423457
endloop
endfacet
facet normal -5.27355936696949e-016 -1.0 -1.46052414848967e-015
outer loop
vertex 0.0551623850872485 0.133010017680139 0.055253324423457
vertex 0.140162385087248 0.133010017680139 0.055253324423457
vertex 0.056610537469963 0.133010017680139 0.0662531338403141
endloop
endfacet
facet normal -5.27355936696949e-016 -1.0 -1.46052414848967e-015
outer loop
vertex 0.056610537469963 0.133010017680139 0.0662531338403141
vertex 0.140162385087248 0.133010017680139 0.055253324423457
vertex 0.138714232704534 0.133010017680139 0.0662531338403141
endloop
endfacet
facet normal -5.27355936696949e-016 -1.0 -1.46052414848967e-015
outer loop
vertex 0.056610537469963 0.133010017680139 0.0662531338403141
vertex 0.138714232704534 0.133010017680139 0.0662531338403141
vertex 0.134468464748087 0.133010017680139 0.0765033244234567
endloop
endfacet
facet normal -5.27355936696949e-016 -1.0 -1.46052414848967e-015
outer loop
vertex 0.056610537469963 0.133010017680139 0.0662531338403141
vertex 0.134468464748087 0.133010017680139 0.0765033244234567
vertex 0.0608563054264099 0.133010017680139 0.0765033244234569
endloop
endfacet
facet normal -5.27355936696949e-016 -1.0 -1.46052414848967e-015
outer loop
vertex 0.0608563054264099 0.133010017680139 0.0765033244234569
vertex 0.134468464748087 0.133010017680139 0.0765033244234567
vertex 0.127714423287677 0.133010017680139 0.0853053626238854
endloop
endfacet
facet normal -5.27355936696949e-016 -1.0 -1.46052414848967e-015
outer loop
vertex 0.0608563054264099 0.133010017680139 0.0765033244234569
vertex 0.127714423287677 0.133010017680139 0.0853053626238854
vertex 0.0676103468868201 0.133010017680139 0.0853053626238854
endloop
endfacet
facet normal -5.27355936696949e-016 -1.0 -1.46052414848967e-015
outer loop
vertex 0.0676103468868201 0.133010017680139 0.0853053626238854
vertex 0.127714423287677 0.133010017680139 0.0853053626238854
vertex 0.118912385087249 0.133010017680139 0.0920594040842955
endloop
endfacet
facet normal -5.27355936696949e-016 -1.0 -1.46052414848967e-015
outer loop
vertex 0.0676103468868201 0.133010017680139 0.0853053626238854
vertex 0.118912385087249 0.133010017680139 0.0920594040842955
vertex 0.0764123850872486 0.133010017680139 0.0920594040842956
endloop
endfacet
facet normal -5.27355936696949e-016 -1.0 -1.46052414848967e-015
outer loop
vertex 0.0764123850872486 0.133010017680139 0.0920594040842956
vertex 0.118912385087249 0.133010017680139 0.0920594040842955
vertex 0.108662194504106 0.133010017680139 0.0963051720407423
endloop
endfacet
facet normal -5.27355936696949e-016 -1.0 -1.46052414848967e-015
outer loop
vertex 0.0764123850872486 0.133010017680139 0.0920594040842956
vertex 0.108662194504106 0.133010017680139 0.0963051720407423
vertex 0.0866625756703914 0.133010017680138 0.0963051720407423
endloop
endfacet
facet normal -5.27355936696949e-016 -1.0 -1.46052414848967e-015
outer loop
vertex 0.0866625756703914 0.133010017680138 0.0963051720407423
vertex 0.108662194504106 0.133010017680139 0.0963051720407423
vertex 0.0976623850872486 0.133010017680139 0.0977533244234569
endloop
endfacet
facet normal 0.258819045102523 1.85292418432011e-015 -0.965925826289068
outer loop
vertex 0.108662194504106 0.163010017680139 0.0142014768061715
vertex 0.118912385087249 0.133010017680139 0.0184472447626182
vertex 0.108662194504106 0.133010017680139 0.0142014768061716
endloop
endfacet
facet normal 0.499999999999998 2.92198620190237e-015 -0.86602540378444
outer loop
vertex 0.118912385087249 0.133010017680139 0.0184472447626182
vertex 0.108662194504106 0.163010017680139 0.0142014768061715
vertex 0.118912385087249 0.163010017680139 0.0184472447626183
endloop
endfacet
facet normal 0.258819045102523 1.85292418432011e-015 -0.965925826289068
outer loop
vertex 0.108662194504106 0.163010017680139 0.0142014768061715
vertex 0.0976623850872485 0.133010017680138 0.0127533244234567
vertex 0.0976623850872485 0.163010017680139 0.012753324423457
endloop
endfacet
facet normal -3.21691067232865e-015 3.78108513910839e-015 -1.0
outer loop
vertex 0.0976623850872485 0.133010017680138 0.0127533244234567
vertex 0.108662194504106 0.163010017680139 0.0142014768061715
vertex 0.108662194504106 0.133010017680139 0.0142014768061716
endloop
endfacet
facet normal 0.86602540378444 1.51873294805462e-015 0.499999999999997
outer loop
vertex 0.134468464748087 0.163010017680139 0.0765033244234568
vertex 0.127714423287677 0.133010017680139 0.0853053626238854
vertex 0.134468464748087 0.133010017680139 0.0765033244234567
endloop
endfacet
facet normal 0.707106781186547 3.90531329499765e-015 0.707106781186548
outer loop
vertex 0.127714423287677 0.133010017680139 0.0853053626238854
vertex 0.134468464748087 0.163010017680139 0.0765033244234568
vertex 0.127714423287677 0.163010017680139 0.085305362623885
endloop
endfacet
facet normal 0.86602540378444 4.28324683967479e-015 -0.499999999999998
outer loop
vertex 0.134468464748087 0.163010017680139 0.0340033244234572
vertex 0.138714232704534 0.133010017680139 0.0442535150065997
vertex 0.134468464748087 0.133010017680138 0.0340033244234567
endloop
endfacet
facet normal 0.965925826289067 7.41869550662666e-016 -0.258819045102524
outer loop
vertex 0.138714232704534 0.133010017680139 0.0442535150065997
vertex 0.134468464748087 0.163010017680139 0.0340033244234572
vertex 0.138714232704534 0.163010017680139 0.0442535150065997
endloop
endfacet
facet normal -0.965925826289069 8.39852321504869e-016 0.258819045102519
outer loop
vertex 0.056610537469963 0.163010017680139 0.0662531338403139
vertex 0.0551623850872485 0.133010017680139 0.055253324423457
vertex 0.056610537469963 0.133010017680139 0.0662531338403141
endloop
endfacet
facet normal -1.0 4.68917546173555e-016 2.86937738639828e-015
outer loop
vertex 0.0551623850872485 0.133010017680139 0.055253324423457
vertex 0.056610537469963 0.163010017680139 0.0662531338403139
vertex 0.0551623850872485 0.163010017680139 0.0552533244234569
endloop
endfacet
facet normal 0.70710678118655 5.5290277832404e-015 -0.707106781186545
outer loop
vertex 0.127714423287677 0.133010017680139 0.0252012862230285
vertex 0.134468464748087 0.163010017680139 0.0340033244234572
vertex 0.134468464748087 0.133010017680138 0.0340033244234567
endloop
endfacet
facet normal 0.86602540378444 4.28324683967479e-015 -0.499999999999998
outer loop
vertex 0.134468464748087 0.163010017680139 0.0340033244234572
vertex 0.127714423287677 0.133010017680139 0.0252012862230285
vertex 0.127714423287677 0.163010017680139 0.0252012862230287
endloop
endfacet
facet normal -1.0 4.68917546173548e-016 -1.60399978121644e-016
outer loop
vertex 0.0551623850872485 0.163010017680139 0.0552533244234569
vertex 0.0566105374699631 0.133010017680139 0.0442535150065997
vertex 0.0551623850872485 0.133010017680139 0.055253324423457
endloop
endfacet
facet normal -0.965925826289068 1.21778586618208e-015 -0.258819045102523
outer loop
vertex 0.0566105374699631 0.133010017680139 0.0442535150065997
vertex 0.0551623850872485 0.163010017680139 0.0552533244234569
vertex 0.0566105374699629 0.163010017680139 0.0442535150065997
endloop
endfacet
endsolid left_wheel
