solid right_wheel
facet normal 5.27355936696949e-016 1.0 2.69296601999694e-015
outer loop
vertex 0.0748899247846743 -0.1614321996353 0.00675720862953984
vertex 0.0968895436183885 -0.1614321996353 0.00675720862953971
vertex 0.0858897342015313 -0.1614321996353 0.00530905624682516
endloop
endfacet
facet normal 5.27355936696949e-016 1.0 2.69296601999694e-015
outer loop
vertex 0.0968895436183885 -0.1614321996353 0.00675720862953971
vertex 0.0748899247846743 -0.1614321996353 0.00675720862953984
vertex 0.107139734201531 -0.1614321996353 0.0110029765859865
endloop
endfacet
facet normal 5.27355936696949e-016 1.0 2.69296601999694e-015
outer loop
vertex 0.107139734201531 -0.1614321996353 0.0110029765859865
vertex 0.0748899247846743 -0.1614321996353 0.00675720862953984
vertex 0.0646397342015314 -0.1614321996353 0.0110029765859866
endloop
endfacet
facet normal 5.27355936696949e-016 1.0 2.69296601999694e-015
outer loop
vertex 0.107139734201531 -0.1614321996353 0.0110029765859865
vertex 0.0646397342015314 -0.1614321996353 0.0110029765859866
vertex 0.11594177240196 -0.1614321996353 0.0177570180463969
endloop
endfacet
facet normal 5.27355936696949e-016 1.0 2.69296601999694e-015
outer loop
vertex 0.11594177240196 -0.1614321996353 0.0177570180463969
vertex 0.0646397342015314 -0.1614321996353 0.0110029765859866
vertex 0.0558376960011032 -0.1614321996353 0.0177570180463969
endloop
endfacet
facet normal 5.27355936696949e-016 1.0 2.69296601999694e-015
outer loop
vertex 0.11594177240196 -0.1614321996353 0.0177570180463969
vertex 0.0558376960011032 -0.1614321996353 0.0177570180463969
vertex 0.0490836545406927 -0.1614321996353 0.0265590562468254
endloop
endfacet
facet normal 5.27355936696949e-016 1.0 2.69296601999694e-015
outer loop
vertex 0.11594177240196 -0.1614321996353 0.0177570180463969
vertex 0.0490836545406927 -0.1614321996353 0.0265590562468254
vertex 0.12269581386237 -0.1614321996353 0.0265590562468254
endloop
endfacet
facet normal 5.27355936696949e-016 1.0 2.69296601999694e-015
outer loop
vertex 0.12269581386237 -0.1614321996353 0.0265590562468254
vertex 0.0490836545406927 -0.1614321996353 0.0265590562468254
vertex 0.044837886584246 -0.161432199635299 0.0368092468299679
endloop
endfacet
facet normal 5.27355936696949e-016 1.0 2.69296601999694e-015
outer loop
vertex 0.12269581386237 -0.1614321996353 0.0265590562468254
vertex 0.044837886584246 -0.161432199635299 0.0368092468299679
vertex 0.126941581818817 -0.1614321996353 0.0368092468299679
endloop
endfacet
facet normal 5.27355936696949e-016 1.0 2.69296601999694e-015
outer loop
vertex 0.126941581818817 -0.1614321996353 0.0368092468299679
vertex 0.044837886584246 -0.161432199635299 0.0368092468299679
vertex 0.0433897342015314 -0.1614321996353 0.0478090562468251
endloop
endfacet
facet normal 5.27355936696949e-016 1.0 2.69296601999694e-015
outer loop
vertex 0.126941581818817 -0.1614321996353 0.0368092468299679
vertex 0.0433897342015314 -0.1614321996353 0.0478090562468251
vertex 0.128389734201531 -0.1614321996353 0.0478090562468252
endloop
endfacet
facet normal 5.27355936696949e-016 1.0 2.69296601999694e-015
outer loop
vertex 0.128389734201531 -0.1614321996353 0.0478090562468252
vertex 0.0433897342015314 -0.1614321996353 0.0478090562468251
vertex 0.044837886584246 -0.1614321996353 0.0588088656636821
endloop
endfacet
facet normal 5.27355936696949e-016 1.0 2.69296601999694e-015
outer loop
vertex 0.128389734201531 -0.1614321996353 0.0478090562468252
vertex 0.044837886584246 -0.1614321996353 0.0588088656636821
vertex 0.126941581818817 -0.1614321996353 0.0588088656636821
endloop
endfacet
facet normal 5.27355936696949e-016 1.0 2.69296601999694e-015
outer loop
vertex 0.126941581818817 -0.1614321996353 0.0588088656636821
vertex 0.044837886584246 -0.1614321996353 0.0588088656636821
vertex 0.0490836545406927 -0.1614321996353 0.0690590562468252
endloop
endfacet
facet normal 5.27355936696949e-016 1.0 2.69296601999694e-015
outer loop
vertex 0.126941581818817 -0.1614321996353 0.0588088656636821
vertex 0.0490836545406927 -0.1614321996353 0.0690590562468252
vertex 0.12269581386237 -0.1614321996353 0.069059056246825
endloop
endfacet
facet normal 5.27355936696949e-016 1.0 2.69296601999694e-015
outer loop
vertex 0.12269581386237 -0.1614321996353 0.069059056246825
vertex 0.0490836545406927 -0.1614321996353 0.0690590562468252
vertex 0.11594177240196 -0.1614321996353 0.0778610944472531
endloop
endfacet
facet normal 5.27355936696949e-016 1.0 2.69296601999694e-015
outer loop
vertex 0.11594177240196 -0.1614321996353 0.0778610944472531
vertex 0.0490836545406927 -0.1614321996353 0.0690590562468252
vertex 0.0558376960011032 -0.1614321996353 0.0778610944472531
endloop
endfacet
facet normal 5.27355936696949e-016 1.0 2.69296601999694e-015
outer loop
vertex 0.11594177240196 -0.1614321996353 0.0778610944472531
vertex 0.0558376960011032 -0.1614321996353 0.0778610944472531
vertex 0.0646397342015314 -0.1614321996353 0.0846151359076638
endloop
endfacet
facet normal 5.27355936696949e-016 1.0 2.69296601999694e-015
outer loop
vertex 0.11594177240196 -0.1614321996353 0.0778610944472531
vertex 0.0646397342015314 -0.1614321996353 0.0846151359076638
vertex 0.107139734201531 -0.1614321996353 0.0846151359076637
endloop
endfacet
facet normal 5.27355936696949e-016 1.0 2.69296601999694e-015
outer loop
vertex 0.107139734201531 -0.1614321996353 0.0846151359076637
vertex 0.0646397342015314 -0.1614321996353 0.0846151359076638
vertex 0.0968895436183885 -0.1614321996353 0.0888609038641104
endloop
endfacet
facet normal 5.27355936696949e-016 1.0 2.69296601999694e-015
outer loop
vertex 0.0968895436183885 -0.1614321996353 0.0888609038641104
vertex 0.0646397342015314 -0.1614321996353 0.0846151359076638
vertex 0.0748899247846743 -0.1614321996353 0.0888609038641105
endloop
endfacet
facet normal 5.27355936696949e-016 1.0 2.69296601999694e-015
outer loop
vertex 0.0968895436183885 -0.1614321996353 0.0888609038641104
vertex 0.0748899247846743 -0.1614321996353 0.0888609038641105
vertex 0.0858897342015313 -0.1614321996353 0.090309056246825
endloop
endfacet
facet normal 0.499999999999997 2.92198620190235e-015 -0.866025403784441
outer loop
vertex 0.107139734201531 -0.1614321996353 0.0110029765859865
vertex 0.0968895436183886 -0.1914321996353 0.00675720862953978
vertex 0.0968895436183885 -0.1614321996353 0.00675720862953971
endloop
endfacet
facet normal 0.258819045102521 1.87304564618951e-015 -0.965925826289068
outer loop
vertex 0.0968895436183886 -0.1914321996353 0.00675720862953978
vertex 0.107139734201531 -0.1614321996353 0.0110029765859865
vertex 0.107139734201531 -0.1914321996353 0.0110029765859864
endloop
endfacet
facet normal -0.707106781186544 4.83614961799889e-015 -0.707106781186551
outer loop
vertex 0.0558376960011032 -0.1614321996353 0.0177570180463969
vertex 0.0646397342015315 -0.1914321996353 0.0110029765859866
vertex 0.0558376960011031 -0.1914321996353 0.0177570180463967
endloop
endfacet
facet normal -0.499999999999995 2.50555942582286e-015 -0.866025403784442
outer loop
vertex 0.0646397342015315 -0.1914321996353 0.0110029765859866
vertex 0.0558376960011032 -0.1614321996353 0.0177570180463969
vertex 0.0646397342015314 -0.1614321996353 0.0110029765859866
endloop
endfacet
facet normal 0.866025403784441 1.51873294805461e-015 0.499999999999996
outer loop
vertex 0.12269581386237 -0.1614321996353 0.069059056246825
vertex 0.11594177240196 -0.1914321996353 0.0778610944472535
vertex 0.12269581386237 -0.1914321996353 0.0690590562468249
endloop
endfacet
facet normal 0.707106781186547 4.01729360453163e-015 0.707106781186548
outer loop
vertex 0.11594177240196 -0.1914321996353 0.0778610944472535
vertex 0.12269581386237 -0.1614321996353 0.069059056246825
vertex 0.11594177240196 -0.1614321996353 0.0778610944472531
endloop
endfacet
facet normal -0.499999999999996 2.23960619067963e-015 0.866025403784441
outer loop
vertex 0.0646397342015314 -0.1914321996353 0.0846151359076638
vertex 0.0558376960011032 -0.1614321996353 0.0778610944472531
vertex 0.0558376960011031 -0.1914321996353 0.0778610944472535
endloop
endfacet
facet normal -0.707106781186548 4.03828991256923e-015 0.707106781186548
outer loop
vertex 0.0558376960011032 -0.1614321996353 0.0778610944472531
vertex 0.0646397342015314 -0.1914321996353 0.0846151359076638
vertex 0.0646397342015314 -0.1614321996353 0.0846151359076638
endloop
endfacet
facet normal -0.258819045102517 5.48528547482864e-016 0.965925826289069
outer loop
vertex 0.0748899247846743 -0.1914321996353 0.0888609038641105
vertex 0.0646397342015314 -0.1614321996353 0.0846151359076638
vertex 0.0646397342015314 -0.1914321996353 0.0846151359076638
endloop
endfacet
facet normal -0.499999999999997 2.23960619067965e-015 0.86602540378444
outer loop
vertex 0.0646397342015314 -0.1614321996353 0.0846151359076638
vertex 0.0748899247846743 -0.1914321996353 0.0888609038641105
vertex 0.0748899247846743 -0.1614321996353 0.0888609038641105
endloop
endfacet
facet normal 0.86602540378444 4.16426776079492e-015 -0.499999999999997
outer loop
vertex 0.12269581386237 -0.1614321996353 0.0265590562468254
vertex 0.126941581818817 -0.1914321996353 0.036809246829968
vertex 0.12269581386237 -0.191432199635301 0.0265590562468249
endloop
endfacet
facet normal 0.965925826289067 6.2289047178281e-016 -0.258819045102525
outer loop
vertex 0.126941581818817 -0.1914321996353 0.036809246829968
vertex 0.12269581386237 -0.1614321996353 0.0265590562468254
vertex 0.126941581818817 -0.1614321996353 0.0368092468299679
endloop
endfacet
facet normal -5.27355936696949e-016 -1.0 -1.46052414848967e-015
outer loop
vertex 0.0968895436183886 -0.1914321996353 0.00675720862953978
vertex 0.0748899247846743 -0.1914321996353 0.00675720862953978
vertex 0.0858897342015314 -0.1914321996353 0.00530905624682494
endloop
endfacet
facet normal -5.27355936696949e-016 -1.0 -1.46052414848967e-015
outer loop
vertex 0.0748899247846743 -0.1914321996353 0.00675720862953978
vertex 0.0968895436183886 -0.1914321996353 0.00675720862953978
vertex 0.107139734201531 -0.1914321996353 0.0110029765859864
endloop
endfacet
facet normal -5.27355936696949e-016 -1.0 -1.46052414848967e-015
outer loop
vertex 0.0748899247846743 -0.1914321996353 0.00675720862953978
vertex 0.107139734201531 -0.1914321996353 0.0110029765859864
vertex 0.0646397342015315 -0.1914321996353 0.0110029765859866
endloop
endfacet
facet normal -5.27355936696949e-016 -1.0 -1.46052414848967e-015
outer loop
vertex 0.0646397342015315 -0.1914321996353 0.0110029765859866
vertex 0.107139734201531 -0.1914321996353 0.0110029765859864
vertex 0.11594177240196 -0.1914321996353 0.0177570180463967
endloop
endfacet
facet normal -5.27355936696949e-016 -1.0 -1.46052414848967e-015
outer loop
vertex 0.0646397342015315 -0.1914321996353 0.0110029765859866
vertex 0.11594177240196 -0.1914321996353 0.0177570180463967
vertex 0.0558376960011031 -0.1914321996353 0.0177570180463967
endloop
endfacet
facet normal -5.27355936696949e-016 -1.0 -1.46052414848967e-015
outer loop
vertex 0.0558376960011031 -0.1914321996353 0.0177570180463967
vertex 0.11594177240196 -0.1914321996353 0.0177570180463967
vertex 0.12269581386237 -0.191432199635301 0.0265590562468249
endloop
endfacet
facet normal -5.27355936696949e-016 -1.0 -1.46052414848967e-015
outer loop
vertex 0.0558376960011031 -0.1914321996353 0.0177570180463967
vertex 0.12269581386237 -0.191432199635301 0.0265590562468249
vertex 0.0490836545406927 -0.1914321996353 0.026559056246825
endloop
endfacet
facet normal -5.27355936696949e-016 -1.0 -1.46052414848967e-015
outer loop
vertex 0.0490836545406927 -0.1914321996353 0.026559056246825
vertex 0.12269581386237 -0.191432199635301 0.0265590562468249
vertex 0.126941581818817 -0.1914321996353 0.036809246829968
endloop
endfacet
facet normal -5.27355936696949e-016 -1.0 -1.46052414848967e-015
outer loop
vertex 0.0490836545406927 -0.1914321996353 0.026559056246825
vertex 0.126941581818817 -0.1914321996353 0.036809246829968
vertex 0.0448378865842459 -0.1914321996353 0.0368092468299679
endloop
endfacet
facet normal -5.27355936696949e-016 -1.0 -1.46052414848967e-015
outer loop
vertex 0.0448378865842459 -0.1914321996353 0.0368092468299679
vertex 0.126941581818817 -0.1914321996353 0.036809246829968
vertex 0.0433897342015314 -0.191432199635299 0.0478090562468252
endloop
endfacet
facet normal -5.27355936696949e-016 -1.0 -1.46052414848967e-015
outer loop
vertex 0.0433897342015314 -0.191432199635299 0.0478090562468252
vertex 0.126941581818817 -0.1914321996353 0.036809246829968
vertex 0.128389734201532 -0.1914321996353 0.0478090562468252
endloop
endfacet
facet normal -5.27355936696949e-016 -1.0 -1.46052414848967e-015
outer loop
vertex 0.0433897342015314 -0.191432199635299 0.0478090562468252
vertex 0.128389734201532 -0.1914321996353 0.0478090562468252
vertex 0.0448378865842459 -0.1914321996353 0.0588088656636823
endloop
endfacet
facet normal -5.27355936696949e-016 -1.0 -1.46052414848967e-015
outer loop
vertex 0.0448378865842459 -0.1914321996353 0.0588088656636823
vertex 0.128389734201532 -0.1914321996353 0.0478090562468252
vertex 0.126941581818817 -0.1914321996353 0.0588088656636823
endloop
endfacet
facet normal -5.27355936696949e-016 -1.0 -1.46052414848967e-015
outer loop
vertex 0.0448378865842459 -0.1914321996353 0.0588088656636823
vertex 0.126941581818817 -0.1914321996353 0.0588088656636823
vertex 0.12269581386237 -0.1914321996353 0.0690590562468249
endloop
endfacet
facet normal -5.27355936696949e-016 -1.0 -1.46052414848967e-015
outer loop
vertex 0.0448378865842459 -0.1914321996353 0.0588088656636823
vertex 0.12269581386237 -0.1914321996353 0.0690590562468249
vertex 0.0490836545406927 -0.1914321996353 0.0690590562468251
endloop
endfacet
facet normal -5.27355936696949e-016 -1.0 -1.46052414848967e-015
outer loop
vertex 0.0490836545406927 -0.1914321996353 0.0690590562468251
vertex 0.12269581386237 -0.1914321996353 0.0690590562468249
vertex 0.11594177240196 -0.1914321996353 0.0778610944472535
endloop
endfacet
facet normal -5.27355936696949e-016 -1.0 -1.46052414848967e-015
outer loop
vertex 0.0490836545406927 -0.1914321996353 0.0690590562468251
vertex 0.11594177240196 -0.1914321996353 0.0778610944472535
vertex 0.0558376960011031 -0.1914321996353 0.0778610944472535
endloop
endfacet
facet normal -5.27355936696949e-016 -1.0 -1.46052414848967e-015
outer loop
vertex 0.0558376960011031 -0.1914321996353 0.0778610944472535
vertex 0.11594177240196 -0.1914321996353 0.0778610944472535
vertex 0.107139734201531 -0.1914321996353 0.0846151359076636
endloop
endfacet
facet normal -5.27355936696949e-016 -1.0 -1.46052414848967e-015
outer loop
vertex 0.0558376960011031 -0.1914321996353 0.0778610944472535
vertex 0.107139734201531 -0.1914321996353 0.0846151359076636
vertex 0.0646397342015314 -0.1914321996353 0.0846151359076638
endloop
endfacet
facet normal -5.27355936696949e-016 -1.0 -1.46052414848967e-015
outer loop
vertex 0.0646397342015314 -0.1914321996353 0.0846151359076638
vertex 0.107139734201531 -0.1914321996353 0.0846151359076636
vertex 0.0968895436183887 -0.1914321996353 0.0888609038641105
endloop
endfacet
facet normal -5.27355936696949e-016 -1.0 -1.46052414848967e-015
outer loop
vertex 0.0646397342015314 -0.1914321996353 0.0846151359076638
vertex 0.0968895436183887 -0.1914321996353 0.0888609038641105
vertex 0.0748899247846743 -0.1914321996353 0.0888609038641105
endloop
endfacet
facet normal -5.27355936696949e-016 -1.0 -1.46052414848967e-015
outer loop
vertex 0.0748899247846743 -0.1914321996353 0.0888609038641105
vertex 0.0968895436183887 -0.1914321996353 0.0888609038641105
vertex 0.0858897342015314 -0.1914321996353 0.0903090562468251
endloop
endfacet
facet normal 0.499999999999997 2.54405265722513e-015 0.86602540378444
outer loop
vertex 0.107139734201531 -0.1914321996353 0.0846151359076636
vertex 0.11594177240196 -0.1614321996353 0.0778610944472531
vertex 0.107139734201531 -0.1614321996353 0.0846151359076637
endloop
endfacet
facet normal 0.707106781186548 4.01729360453162e-015 0.707106781186547
outer loop
vertex 0.11594177240196 -0.1614321996353 0.0778610944472531
vertex 0.107139734201531 -0.1914321996353 0.0846151359076636
vertex 0.11594177240196 -0.1914321996353 0.0778610944472535
endloop
endfacet
facet normal 0.258819045102524 1.03669270935755e-015 0.965925826289067
outer loop
vertex 0.0968895436183887 -0.1914321996353 0.0888609038641105
vertex 0.107139734201531 -0.1614321996353 0.0846151359076637
vertex 0.0968895436183885 -0.1614321996353 0.0888609038641104
endloop
endfacet
facet normal 0.499999999999997 2.54405265722513e-015 0.86602540378444
outer loop
vertex 0.107139734201531 -0.1614321996353 0.0846151359076637
vertex 0.0968895436183887 -0.1914321996353 0.0888609038641105
vertex 0.107139734201531 -0.1914321996353 0.0846151359076636
endloop
endfacet
facet normal -0.965925826289069 8.67847398888364e-016 0.258819045102518
outer loop
vertex 0.044837886584246 -0.1614321996353 0.0588088656636821
vertex 0.0433897342015314 -0.191432199635299 0.0478090562468252
vertex 0.0448378865842459 -0.1914321996353 0.0588088656636823
endloop
endfacet
facet normal -1.0 4.96912623557049e-016 2.21886636401602e-015
outer loop
vertex 0.0433897342015314 -0.191432199635299 0.0478090562468252
vertex 0.044837886584246 -0.1614321996353 0.0588088656636821
vertex 0.0433897342015314 -0.1614321996353 0.0478090562468251
endloop
endfacet
facet normal -1.0 4.96912623557049e-016 2.21886636401602e-015
outer loop
vertex 0.0433897342015314 -0.191432199635299 0.0478090562468252
vertex 0.044837886584246 -0.161432199635299 0.0368092468299679
vertex 0.0448378865842459 -0.1914321996353 0.0368092468299679
endloop
endfacet
facet normal -0.965925826289068 1.21778586618206e-015 -0.258819045102521
outer loop
vertex 0.044837886584246 -0.161432199635299 0.0368092468299679
vertex 0.0433897342015314 -0.191432199635299 0.0478090562468252
vertex 0.0433897342015314 -0.1614321996353 0.0478090562468251
endloop
endfacet
facet normal -0.965925826289067 1.21778586618209e-015 -0.258819045102524
outer loop
vertex 0.0448378865842459 -0.1914321996353 0.0368092468299679
vertex 0.0490836545406927 -0.1614321996353 0.0265590562468254
vertex 0.0490836545406927 -0.1914321996353 0.026559056246825
endloop
endfacet
facet normal -0.86602540378444 4.37423084117114e-015 -0.499999999999997
outer loop
vertex 0.0490836545406927 -0.1614321996353 0.0265590562468254
vertex 0.0448378865842459 -0.1914321996353 0.0368092468299679
vertex 0.044837886584246 -0.161432199635299 0.0368092468299679
endloop
endfacet
facet normal -0.258819045102531 3.41539944078645e-015 -0.965925826289066
outer loop
vertex 0.0748899247846743 -0.1614321996353 0.00675720862953984
vertex 0.0646397342015315 -0.1914321996353 0.0110029765859866
vertex 0.0646397342015314 -0.1614321996353 0.0110029765859866
endloop
endfacet
facet normal -0.499999999999995 2.50555942582286e-015 -0.866025403784442
outer loop
vertex 0.0646397342015315 -0.1914321996353 0.0110029765859866
vertex 0.0748899247846743 -0.1614321996353 0.00675720862953984
vertex 0.0748899247846743 -0.1914321996353 0.00675720862953978
endloop
endfacet
facet normal 0.965925826289068 6.22890471782784e-016 -0.258819045102522
outer loop
vertex 0.126941581818817 -0.1614321996353 0.0368092468299679
vertex 0.128389734201532 -0.1914321996353 0.0478090562468252
vertex 0.126941581818817 -0.1914321996353 0.036809246829968
endloop
endfacet
facet normal 1.0 -2.23960619067962e-016 2.21886636401606e-015
outer loop
vertex 0.128389734201532 -0.1914321996353 0.0478090562468252
vertex 0.126941581818817 -0.1614321996353 0.0368092468299679
vertex 0.128389734201531 -0.1614321996353 0.0478090562468252
endloop
endfacet
facet normal 1.0 -2.23960619067962e-016 2.21886636401606e-015
outer loop
vertex 0.128389734201532 -0.1914321996353 0.0478090562468252
vertex 0.126941581818817 -0.1614321996353 0.0588088656636821
vertex 0.126941581818817 -0.1914321996353 0.0588088656636823
endloop
endfacet
facet normal 0.965925826289068 2.51955696451461e-016 0.25881904510252
outer loop
vertex 0.126941581818817 -0.1614321996353 0.0588088656636821
vertex 0.128389734201532 -0.1914321996353 0.0478090562468252
vertex 0.128389734201531 -0.1614321996353 0.0478090562468252
endloop
endfacet
facet normal -0.707106781186548 4.03828991256923e-015 0.707106781186548
outer loop
vertex 0.0558376960011032 -0.1614321996353 0.0778610944472531
vertex 0.0490836545406927 -0.1914321996353 0.0690590562468251
vertex 0.0558376960011031 -0.1914321996353 0.0778610944472535
endloop
endfacet
facet normal -0.793353340291232 3.12250225675825e-015 0.608761429008725
outer loop
vertex 0.0490836545406927 -0.1914321996353 0.0690590562468251
vertex 0.0558376960011032 -0.1614321996353 0.0778610944472531
vertex 0.0490836545406927 -0.1614321996353 0.0690590562468252
endloop
endfacet
facet normal 0.707106781186549 5.52902778324039e-015 -0.707106781186546
outer loop
vertex 0.11594177240196 -0.1614321996353 0.0177570180463969
vertex 0.107139734201531 -0.1914321996353 0.0110029765859864
vertex 0.107139734201531 -0.1614321996353 0.0110029765859865
endloop
endfacet
facet normal 0.499999999999998 2.92198620190237e-015 -0.86602540378444
outer loop
vertex 0.107139734201531 -0.1914321996353 0.0110029765859864
vertex 0.11594177240196 -0.1614321996353 0.0177570180463969
vertex 0.11594177240196 -0.1914321996353 0.0177570180463967
endloop
endfacet
facet normal 0.70710678118655 5.5290277832404e-015 -0.707106781186545
outer loop
vertex 0.11594177240196 -0.1914321996353 0.0177570180463967
vertex 0.12269581386237 -0.1614321996353 0.0265590562468254
vertex 0.12269581386237 -0.191432199635301 0.0265590562468249
endloop
endfacet
facet normal 0.86602540378444 4.16426776079492e-015 -0.499999999999997
outer loop
vertex 0.12269581386237 -0.1614321996353 0.0265590562468254
vertex 0.11594177240196 -0.1914321996353 0.0177570180463967
vertex 0.11594177240196 -0.1614321996353 0.0177570180463969
endloop
endfacet
facet normal -0.86602540378444 4.37423084117114e-015 -0.499999999999997
outer loop
vertex 0.0490836545406927 -0.1614321996353 0.0265590562468254
vertex 0.0558376960011031 -0.1914321996353 0.0177570180463967
vertex 0.0490836545406927 -0.1914321996353 0.026559056246825
endloop
endfacet
facet normal -0.707106781186545 4.83614961799891e-015 -0.70710678118655
outer loop
vertex 0.0558376960011031 -0.1914321996353 0.0177570180463967
vertex 0.0490836545406927 -0.1614321996353 0.0265590562468254
vertex 0.0558376960011032 -0.1614321996353 0.0177570180463969
endloop
endfacet
facet normal -0.923879532511288 9.15933995315754e-016 0.382683432365088
outer loop
vertex 0.0490836545406927 -0.1914321996353 0.0690590562468251
vertex 0.044837886584246 -0.1614321996353 0.0588088656636821
vertex 0.0448378865842459 -0.1914321996353 0.0588088656636823
endloop
endfacet
facet normal -0.965925826289069 8.67847398888364e-016 0.258819045102518
outer loop
vertex 0.044837886584246 -0.1614321996353 0.0588088656636821
vertex 0.0490836545406927 -0.1914321996353 0.0690590562468251
vertex 0.0490836545406927 -0.1614321996353 0.0690590562468252
endloop
endfacet
facet normal 0.258819045102523 1.8730456461895e-015 -0.965925826289068
outer loop
vertex 0.0968895436183885 -0.1614321996353 0.00675720862953971
vertex 0.0858897342015314 -0.1914321996353 0.00530905624682494
vertex 0.0858897342015313 -0.1614321996353 0.00530905624682516
endloop
endfacet
facet normal -1.63073311090344e-015 3.80120660097776e-015 -1.0
outer loop
vertex 0.0858897342015314 -0.1914321996353 0.00530905624682494
vertex 0.0968895436183885 -0.1614321996353 0.00675720862953971
vertex 0.0968895436183886 -0.1914321996353 0.00675720862953978
endloop
endfacet
facet normal 2.15648859474651e-015 1.87567018469421e-015 1.0
outer loop
vertex 0.0858897342015314 -0.1914321996353 0.0903090562468251
vertex 0.0968895436183885 -0.1614321996353 0.0888609038641104
vertex 0.0858897342015313 -0.1614321996353 0.090309056246825
endloop
endfacet
facet normal 0.258819045102522 1.03669270935757e-015 0.965925826289068
outer loop
vertex 0.0968895436183885 -0.1614321996353 0.0888609038641104
vertex 0.0858897342015314 -0.1914321996353 0.0903090562468251
vertex 0.0968895436183887 -0.1914321996353 0.0888609038641105
endloop
endfacet
facet normal 2.15648859474651e-015 1.87567018469421e-015 1.0
outer loop
vertex 0.0858897342015314 -0.1914321996353 0.0903090562468251
vertex 0.0748899247846743 -0.1614321996353 0.0888609038641105
vertex 0.0748899247846743 -0.1914321996353 0.0888609038641105
endloop
endfacet
facet normal -0.258819045102517 5.48528547482865e-016 0.965925826289069
outer loop
vertex 0.0748899247846743 -0.1614321996353 0.0888609038641105
vertex 0.0858897342015314 -0.1914321996353 0.0903090562468251
vertex 0.0858897342015313 -0.1614321996353 0.090309056246825
endloop
endfacet
facet normal 0.965925826289068 2.5195569645146e-016 0.258819045102524
outer loop
vertex 0.126941581818817 -0.1914321996353 0.0588088656636823
vertex 0.12269581386237 -0.1614321996353 0.069059056246825
vertex 0.12269581386237 -0.1914321996353 0.0690590562468249
endloop
endfacet
facet normal 0.866025403784441 1.51873294805461e-015 0.499999999999996
outer loop
vertex 0.12269581386237 -0.1614321996353 0.069059056246825
vertex 0.126941581818817 -0.1914321996353 0.0588088656636823
vertex 0.126941581818817 -0.1614321996353 0.0588088656636821
endloop
endfacet
facet normal -3.47533285930227e-015 3.80120660097778e-015 -1.0
outer loop
vertex 0.0858897342015313 -0.1614321996353 0.00530905624682516
vertex 0.0748899247846743 -0.1914321996353 0.00675720862953978
vertex 0.0748899247846743 -0.1614321996353 0.00675720862953984
endloop
endfacet
facet normal -0.258819045102527 3.4153994407865e-015 -0.965925826289067
outer loop
vertex 0.0748899247846743 -0.1914321996353 0.00675720862953978
vertex 0.0858897342015313 -0.1614321996353 0.00530905624682516
vertex 0.0858897342015314 -0.1914321996353 0.00530905624682494
endloop
endfacet
endsolid right_wheel
