solid top_plate
facet normal -0.00867999553293072 0.00737207745922881 -0.999935152973173
outer loop
vertex -0.00668263341335714 -0.215011746299047 1.56873143146239
vertex 0.0133144988429867 -0.248050715125673 1.56831426355427
vertex -0.00668474767864704 -0.248050715125676 1.56848786818249
endloop
endfacet
facet normal -0.00867999553293072 0.00737207745922881 -0.999935152973173
outer loop
vertex 0.0133144988429867 -0.248050715125673 1.56831426355427
vertex -0.00668263341335714 -0.215011746299047 1.56873143146239
vertex 0.0133166131082703 -0.215011746299042 1.56855782683418
endloop
endfacet
facet normal -0.00867999553081145 0.00737207746024719 -0.999935152973184
outer loop
vertex -0.0066572314031593 0.181937599997474 1.57165774206418
vertex 0.0133399699467533 0.149978335142673 1.57124853373381
vertex -0.00665927657487551 0.149978335142678 1.57142213836198
endloop
endfacet
facet normal -0.00867999553081145 0.00737207746024719 -0.999935152973184
outer loop
vertex 0.0133399699467533 0.149978335142673 1.57124853373381
vertex -0.0066572314031593 0.181937599997474 1.57165774206418
vertex 0.0133420151184611 0.181937599997479 1.57148413743601
endloop
endfacet
facet normal -6.39913377558227e-005 -0.999972825867746 -0.00737179972483501
outer loop
vertex 0.0133420151184611 0.181937599997479 1.57148413743601
vertex -0.00930463004087493 0.184186083622729 1.26667752040741
vertex 0.0106946164807623 0.184186083622747 1.26650391577918
endloop
endfacet
facet normal -6.39913377558227e-005 -0.999972825867746 -0.00737179972483501
outer loop
vertex -0.00930463004087493 0.184186083622729 1.26667752040741
vertex 0.0133420151184611 0.181937599997479 1.57148413743601
vertex -0.0066572314031593 0.181937599997474 1.57165774206418
endloop
endfacet
facet normal 0.00867999553361232 -0.0073720774599946 0.999935152973162
outer loop
vertex 0.0106671002052845 -0.24580223150039 1.26333404189745
vertex -0.00930463004087493 0.184186083622729 1.26667752040741
vertex -0.00933214631635017 -0.245802231500383 1.26350764652568
endloop
endfacet
facet normal 0.00867999553361232 -0.0073720774599946 0.999935152973162
outer loop
vertex -0.00930463004087493 0.184186083622729 1.26667752040741
vertex 0.0106671002052845 -0.24580223150039 1.26333404189745
vertex 0.0106946164807623 0.184186083622747 1.26650391577918
endloop
endfacet
facet normal 6.39913384643392e-005 0.999972825867745 0.00737179972491288
outer loop
vertex -0.00933214631635017 -0.245802231500383 1.26350764652568
vertex 0.0133144988429867 -0.248050715125673 1.56831426355427
vertex 0.0106671002052845 -0.24580223150039 1.26333404189745
endloop
endfacet
facet normal 6.39913384643392e-005 0.999972825867745 0.00737179972491288
outer loop
vertex 0.0133144988429867 -0.248050715125673 1.56831426355427
vertex -0.00933214631635017 -0.245802231500383 1.26350764652568
vertex -0.00668474767864704 -0.248050715125676 1.56848786818249
endloop
endfacet
facet normal -0.00867999553174833 0.00737207746000078 -0.999935152973178
outer loop
vertex -0.00665927657487551 0.149978335142678 1.57142213836198
vertex 0.0133166131082703 -0.215011746299042 1.56855782683418
vertex -0.00668263341335714 -0.215011746299047 1.56873143146239
endloop
endfacet
facet normal -0.00867999553174833 0.00737207746000078 -0.999935152973178
outer loop
vertex 0.0133166131082703 -0.215011746299042 1.56855782683418
vertex -0.00665927657487551 0.149978335142678 1.57142213836198
vertex 0.0133399699467533 0.149978335142673 1.57124853373381
endloop
endfacet
facet normal -0.999962326081662 -2.02615701994091e-015 0.00868023141118276
outer loop
vertex 0.0133166131082703 -0.215011746299042 1.56855782683418
vertex 0.0113435709740731 0.151673912958475 1.34126344854993
vertex 0.0113202141355741 -0.213316168483236 1.33857274165037
endloop
endfacet
facet normal -0.999962326081662 -2.02615701994091e-015 0.00868023141118276
outer loop
vertex 0.0113435709740731 0.151673912958475 1.34126344854993
vertex 0.0133166131082703 -0.215011746299042 1.56855782683418
vertex 0.0133399699467533 0.149978335142673 1.57124853373381
endloop
endfacet
facet normal -0.999962326081662 -1.10328413072125e-014 0.00868023141119437
outer loop
vertex 0.0133166131082703 -0.215011746299042 1.56855782683418
vertex 0.0113202141355741 -0.213316168483236 1.33857274165037
vertex 0.0133144988429867 -0.248050715125673 1.56831426355427
endloop
endfacet
facet normal -0.999962326081662 -1.10328413072125e-014 0.00868023141119437
outer loop
vertex 0.0106671002052845 -0.24580223150039 1.26333404189745
vertex 0.0113202141355741 -0.213316168483236 1.33857274165037
vertex 0.0106946164807623 0.184186083622747 1.26650391577918
endloop
endfacet
facet normal -0.999962326081662 -1.10328413072125e-014 0.00868023141119437
outer loop
vertex 0.0113202141355741 -0.213316168483236 1.33857274165037
vertex 0.0106671002052845 -0.24580223150039 1.26333404189745
vertex 0.0133144988429867 -0.248050715125673 1.56831426355427
endloop
endfacet
facet normal -0.999962326081662 -1.10328413072125e-014 0.00868023141119437
outer loop
vertex 0.0106946164807623 0.184186083622747 1.26650391577918
vertex 0.0113202141355741 -0.213316168483236 1.33857274165037
vertex 0.0113435709740731 0.151673912958475 1.34126344854993
endloop
endfacet
facet normal -0.999962326081662 -1.10328413072125e-014 0.00868023141119437
outer loop
vertex 0.0106946164807623 0.184186083622747 1.26650391577918
vertex 0.0113435709740731 0.151673912958475 1.34126344854993
vertex 0.0133399699467533 0.149978335142673 1.57124853373381
endloop
endfacet
facet normal -0.999962326081662 -1.10328413072125e-014 0.00868023141119437
outer loop
vertex 0.0106946164807623 0.184186083622747 1.26650391577918
vertex 0.0133399699467533 0.149978335142673 1.57124853373381
vertex 0.0133420151184611 0.181937599997479 1.57148413743601
endloop
endfacet
facet normal 0.999980446800901 -0.00625348030058385 6.03788455983674e-019
outer loop
vertex -0.0066572314031593 0.181937599997474 1.26350764652568
vertex -0.00933214631635008 -0.245802231500383 1.57165774206418
vertex -0.00933214631635008 -0.245802231500383 1.26350764652568
endloop
endfacet
facet normal 0.999980446800901 -0.00625348030058385 6.03788455983674e-019
outer loop
vertex -0.00933214631635008 -0.245802231500383 1.57165774206418
vertex -0.0066572314031593 0.181937599997474 1.26350764652568
vertex -0.0066572314031593 0.181937599997474 1.57165774206418
endloop
endfacet
endsolid top_plate
